<?xml version="1.0" standalone="no"?>
<!DOCTYPE svg PUBLIC "-//W3C//DTD SVG 1.1//EN" "http://www.w3.org/Graphics/SVG/1.1/DTD/svg11.dtd" >
<svg xmlns="http://www.w3.org/2000/svg">
<metadata>Generated by IcoMoon</metadata>
<defs>
<font id="icomoon" horiz-adv-x="1024">
<font-face units-per-em="1024" ascent="960" descent="-64" />
<missing-glyph horiz-adv-x="1024" />
<glyph unicode="&#x20;" horiz-adv-x="512" d="" />
<glyph unicode="&#xe900;" glyph-name="advantages-two" d="M663.8 464.9c-6.7 0-13 4.2-15.2 10.9l-65.6 193.4c-10.8 31.7 6.2 66.4 38 77.2 15.4 5.2 31.9 4.2 46.5-3s25.5-19.6 30.7-35l54.8-162.2c2.8-8.4-1.7-17.6-10.1-20.4s-17.6 1.7-20.4 10.1l-54.8 162.1c-2.5 7.2-7.6 13.1-14.5 16.4-6.9 3.4-14.6 3.9-21.9 1.4-15-5.1-23-21.4-17.9-36.4l65.6-193.2c2.9-8.4-1.7-17.6-10.1-20.4-1.6-0.6-3.4-0.9-5.1-0.9zM983.4-11.5c-6.3 0-12.3 3.7-14.9 9.9l-49.2 118.6c-0.1 0.3-0.3 0.6-0.4 1-11.5 33.6-16.1 68.7-13.8 104.1 2 31.2-2 62-12.1 91.6l-56.7 166.4c-2.9 8.4 1.6 17.6 10 20.4 8.4 2.9 17.6-1.6 20.4-10l56.7-166.4c11.5-33.6 16.1-68.7 13.8-104.1-2-31 2-61.7 12-91.2l49-118.1c3.4-8.2-0.5-17.6-8.7-21-1.9-0.8-4-1.2-6.1-1.2zM737.8 524.9c-6.7 0-13 4.2-15.2 10.9l-39.1 115.7c-10.8 31.7 6.2 66.3 38 77.2 31.8 10.8 66.4-6.2 77.2-38l42.7-125.5c2.9-8.4-1.6-17.6-10-20.4-8.4-2.9-17.6 1.6-20.4 10l-42.7 125.5c-5.1 15-21.4 23-36.4 17.9s-23-21.4-17.9-36.4l39-115.6c2.8-8.4-1.7-17.6-10.1-20.4-1.7-0.6-3.4-0.9-5.1-0.9zM595.2 389.6c-6.7 0-13 4.2-15.2 10.9l-91.3 268.1c-5.2 15.4-4.2 31.9 3 46.5s19.6 25.5 35 30.7c31.8 10.8 66.4-6.2 77.2-38l75.1-221.6c2.9-8.4-1.6-17.6-10.1-20.4-8.4-2.9-17.6 1.6-20.4 10.1l-75.2 221.6c-5.1 14.9-21.4 23-36.3 17.9-7.2-2.5-13.1-7.6-16.5-14.5s-3.9-14.6-1.4-21.9l91.3-268.1c2.9-8.4-1.6-17.6-10-20.4-1.7-0.7-3.5-0.9-5.2-0.9zM381.8 240.9c-8.7 0-15.8 6.9-16.1 15.6l-5.1 170.2c-0.1 4.6 1.7 9 5 12.1 3.3 3.2 7.8 4.8 12.3 4.4l13.9-1c52.4-3.9 94-46.4 96.6-98.9l2-39.6 29.8-6.2-106.6 314c-5.2 15.4-4.2 31.9 3 46.5s19.6 25.5 35 30.7 31.9 4.2 46.5-3c14.6-7.2 25.5-19.6 30.7-35l81.7-239.9c2.9-8.4-1.6-17.6-10-20.4-8.4-2.9-17.6 1.6-20.4 10l-81.7 239.9c-5.1 15-21.4 23-36.4 17.9-7.2-2.5-13.1-7.6-16.5-14.5s-3.9-14.6-1.4-21.9l115.8-340.7c1.9-5.5 0.6-11.5-3.2-15.8s-9.7-6.3-15.3-5.1l-69.6 14.6c-7.2 1.5-12.4 7.6-12.8 14.9l-2.6 52c-1.8 35-28.5 63.6-62.9 68.1l4.5-152.3c0.3-8.9-6.7-16.3-15.6-16.6-0.3 0-0.4 0-0.6 0zM687.8-51.1c-6.7 0-13 4.2-15.2 10.9l-35.4 103.9c-3.2 9.3-10.3 16.7-19.5 20.3l-89.7 33c-0.1 0-0.1 0-0.2 0.1-12.4 4.7-23.6 11.7-33.3 20.7l-82.9 66.6c-6.9 5.6-8 15.7-2.5 22.6 5.6 6.9 15.7 8 22.6 2.5l83.3-67c0.3-0.3 0.6-0.5 0.9-0.8 6.7-6.3 14.5-11.2 23.1-14.5l89.7-33c0.1 0 0.1 0 0.2-0.1 18.2-7 32.3-21.5 38.6-40l35.5-103.9c2.9-8.4-1.6-17.6-10-20.4-1.7-0.6-3.5-0.9-5.2-0.9zM294.3 463.2c-0.4 0-0.8 0-1.2 0-8.9 0.7-15.5 8.4-14.9 17.2l28.3 380.9c1.3 16.9 9 32.3 21.9 43.4 12.8 11.1 29.2 16.5 46.2 15.2 16.9-1.3 32.3-9 43.4-21.9 11.1-12.8 16.5-29.2 15.2-46.2-0.7-8.9-8.4-15.5-17.2-14.9-8.9 0.7-15.5 8.4-14.9 17.2 0.6 8.3-2 16.4-7.5 22.8-5.5 6.3-13.1 10.2-21.4 10.8s-16.4-2-22.8-7.5c-6.3-5.5-10.2-13.1-10.8-21.4l-28.3-380.9c-0.6-8.3-7.6-14.7-16-14.7zM499.8 662.9c-0.4 0-0.8 0-1.2 0-8.9 0.6-15.5 8.3-14.9 17.2l11.9 167.1c2.6 35 33.1 61.3 68 58.7 16.9-1.3 32.3-9 43.4-21.9 11.1-12.8 16.5-29.2 15.2-46.2l-10.5-132.1c-0.7-8.9-8.5-15.5-17.3-14.8-8.9 0.7-15.5 8.5-14.8 17.3l10.5 132c0.6 8.3-2.1 16.3-7.5 22.7-5.5 6.3-13.1 10.2-21.4 10.8-17.2 1.3-32.3-11.7-33.6-28.9l-11.9-167c-0.5-8.4-7.5-14.9-15.9-14.9zM689.8 678.9c-0.5 0-0.9 0-1.4 0.1-8.9 0.7-15.4 8.5-14.7 17.4l7.2 85c0.6 8.3-2.1 16.4-7.5 22.7-5.5 6.3-13.1 10.2-21.4 10.8s-16.4-2-22.8-7.5-10.2-13.1-10.8-21.4c0 0 0-0.1 0-0.1l-6.6-80.1c-0.7-8.9-8.5-15.5-17.4-14.7-8.9 0.7-15.4 8.5-14.7 17.4l6.6 80.1c1.3 16.9 9 32.3 21.9 43.3 12.8 11.1 29.2 16.5 46.2 15.2 16.9-1.3 32.3-9 43.4-21.9 11.1-12.8 16.5-29.2 15.2-46.2 0-0.1 0-0.1 0-0.2l-7.2-85.1c-0.7-8.4-7.7-14.8-16-14.8zM391.8 492.9c-0.4 0-0.8 0-1.2 0-8.9 0.7-15.5 8.4-14.9 17.2l27.7 375.6c1.3 16.9 9 32.3 21.9 43.4s29.2 16.5 46.2 15.2c16.9-1.3 32.3-9 43.4-21.9 11.1-12.8 16.5-29.2 15.2-46.2l-14.3-198.5c-0.6-8.9-8.3-15.5-17.2-14.9s-15.5 8.3-14.9 17.2l14.3 198.8c0.6 8.4-2 16.5-7.5 22.8s-13.1 10.2-21.4 10.8c-8.3 0.6-16.4-2-22.8-7.5s-10.2-13.1-10.8-21.4l-27.7-375.6c-0.6-8.5-7.6-15-16-15zM298 11.7c-0.4 0-0.8 0-1.2 0-8.9 0.7-15.5 8.4-14.9 17.2l9.8 131.4c0.7 8.9 8.4 15.5 17.2 14.9 8.9-0.7 15.5-8.4 14.9-17.2l-9.8-131.4c-0.5-8.5-7.6-14.9-16-14.9zM312.7 208.6c-0.4 0-0.8 0-1.2 0-8.9 0.7-15.5 8.4-14.9 17.2l0.6 8.6c0.8 10.7-3.2 21.1-10.9 28.6l-73.7 69.4c0 0-0.1 0.1-0.1 0.1-10.2 9.8-18.2 21.4-23.9 34.3l-54 124.8c-4.3 9.8-7.2 20.3-8.4 31.1l-18.1 147.9c-1.1 8.6 4.9 16.5 13.5 17.9l8.4 1.3c22.8 4.7 46 0.2 65.3-12.9 19.4-13.2 32.3-33.2 36.3-56.4l15.7-89.9 52.9-54.4c13.3-1.2 26.1-2.9 38.3-5.1 8.7-1.6 14.5-10 12.9-18.7s-10-14.5-18.7-12.9c-12.9 2.4-26.7 4.1-41 5.2-3.9 0.3-7.6 2-10.3 4.8l-60.6 62.3c-2.3 2.3-3.8 5.3-4.3 8.5l-16.6 94.9c-2.5 14.5-10.5 27-22.6 35.2-10.5 7.1-22.9 10.2-35.3 8.9l16.2-132.5c0 0 0-0.1 0-0.1 0.9-7.6 2.8-14.9 5.9-21.9l54-124.8c3.9-9 9.6-17.1 16.7-24l73.7-69.4c0 0 0.1-0.1 0.1-0.1 14.7-14.1 22.2-33.9 20.7-54.2l-0.6-8.6c-0.6-8.7-7.7-15.1-16-15.1zM126.6 313.6c-4.1 0-8.1 1.5-11.3 4.6-6.3 6.2-6.4 16.4-0.2 22.8 2 2.1 4.1 4.2 6.2 6.3 6.3 6.3 16.5 6.3 22.8 0s6.3-16.5 0-22.8c-2-2-4-4-6-6-3.1-3.3-7.3-4.9-11.5-4.9zM99.6 145.6c-32.5 0-54.5 8.9-65.5 26.7-17.7 28.6-2.4 72.1 45.4 129.5 5.7 6.8 15.8 7.7 22.7 2 6.8-5.7 7.7-15.8 2-22.7-42.2-50.6-49.8-80.6-42.8-91.9 7.5-12.1 40.9-18.5 112.1 0.1 67.2 17.6 155.7 54.4 249.1 103.8 7.9 4.2 17.6 1.1 21.7-6.7 4.2-7.9 1.1-17.6-6.7-21.7-96.9-51.2-185.4-88-256-106.4-32.3-8.5-59.6-12.7-82-12.7zM683.3 419.8c-5 0-9.9 2.3-13.1 6.7-5.2 7.2-3.6 17.3 3.7 22.5 85.6 61.7 157.9 124.4 203.5 176.8 48.3 55.4 57.4 88.1 49.9 100.2-5.3 8.5-22.3 12.6-46.8 11.3-28.9-1.6-68.4-10.7-114.1-26.3-8.4-2.9-17.6 1.6-20.4 10-2.9 8.4 1.6 17.6 10 20.4 49.2 16.8 90.5 26.2 122.8 27.9 38.2 2.1 63.7-6.8 75.9-26.5 18.6-30 0.8-76.6-53-138.3-47.9-54.9-120.1-117.8-209-181.8-2.9-1.9-6.2-2.9-9.4-2.9z" />
<glyph unicode="&#xe901;" glyph-name="advantages" d="M578.687 628.016c-42.047-48.176-61.263-112.096-52.768-175.457 0.016-0.176 0.048-0.351 0.064-0.528 10.512-76.992 10.512-155.072 0-232.063l31.712-4.336c10.881 79.711 10.897 160.544 0.064 240.271-0.032 0.176-0.048 0.336-0.064 0.512-1.808 13.232-2.143 26.497-1.183 39.583h386.896c0.96-12.959 0.639-26.080-1.121-39.183-0.032-0.145-0.048-0.304-0.080-0.465-10.879-79.856-10.879-160.847 0-240.703l9.792-71.648h-330.032v-32.001h334.384l2.896-21.2c3.12-22.895-3.792-46-18.992-63.408s-37.168-27.392-60.273-27.392h-260.048v-32h260.048c32.336 0 63.105 13.983 84.369 38.352 21.28 24.368 30.976 56.721 26.608 88.784l-17.025 124.833c-10.48 76.864-10.496 154.816-0.063 231.664 0.032 0.159 0.047 0.304 0.079 0.464 8.657 63.52-10.544 127.631-52.704 175.92-28.672 32.847-66.143 55.872-107.28 67.423v88.561h16.001c8.847 0 15.999 7.167 15.999 15.999v80c0 26.464-21.536 48-47.999 48h-192c-26.465 0-48.001-21.536-48.001-48v-32c0-8.832 7.152-16 16.001-16h79.999v-32c0-8.833 7.152-15.999 16.001-15.999h15.999v-88.561c-41.136-11.551-78.608-34.576-107.28-67.423zM897.135 606.976c20.016-22.927 33.729-50.096 40.944-78.975h-376.223c7.2 28.88 20.928 56.048 40.944 78.975 36.064 41.329 88.209 65.024 143.072 65.024h8.192c54.864 0 106.992-23.695 143.072-65.024zM589.967 864v16c0 8.816 7.168 16 16.001 16h192c8.831 0 15.999-7.184 15.999-16v-64h-128v16h48.001v32h-144.001zM717.967 784.001h64v-81.936c-9.216 1.167-18.511 1.935-27.904 1.935h-8.192c-9.392 0-18.688-0.768-27.904-1.935v81.936zM45.968-16.001c0-8.831 7.152-15.999 16-15.999h512c8.847 0 15.999 7.168 15.999 15.999v112.001c0 8.831-7.152 15.999-15.999 15.999h-1.169c-3.999 30.224-19.152 57.888-43.103 77.52-28.128 23.056-64.689 32.208-100.384 25.056l-93.904-18.783c-11.568-2.32-23.312-2.32-34.88 0l-93.904 18.783c-35.713 7.168-72.272-2-100.384-25.056-23.968-19.632-39.104-47.296-43.104-77.52h-1.168c-8.848 0-16-7.168-16-15.999v-112.001zM557.967 0h-480v79.999h480v-79.999zM126.512 164.767c20.672 16.976 47.552 23.695 73.824 18.432l93.905-18.785c15.679-3.135 31.664-3.151 47.439 0l93.904 18.785c26.305 5.231 53.153-1.488 73.825-18.432 16.481-13.52 27.249-32.208 30.976-52.768h-444.848c3.744 20.56 14.496 39.265 30.976 52.768zM45.968 352c0-52.944 43.056-96 96-96s96 43.056 96 96c0 52.944-43.055 96-96 96s-96-43.056-96-96zM205.967 352c0-35.296-28.704-64-64-64s-64 28.704-64 64c0 35.296 28.704 64 64 64s64-28.704 64-64zM349.968 512c0-5.824 0.383-11.633 1.183-17.376-37.056-6.976-65.183-39.585-65.183-78.624 0-44.112 35.888-79.999 79.999-79.999v31.999c-26.463 0-47.999 21.536-47.999 48.001 0 26.4 21.424 47.888 48.527 47.888 0.080 0 0.161 0 0.224 0 0.945-0.129 1.872-0.24 2.832-0.32 5.168-0.399 10.385 1.808 13.697 5.936 3.312 4.112 4.368 9.601 2.848 14.656-2.737 9.055-4.128 18.416-4.128 27.856 0 52.944 43.056 96 96 96 19.744 0 38.72-5.952 54.848-17.2l18.319 26.257c-21.536 14.991-46.832 22.927-73.168 22.927-70.576 0-128-57.424-128-128zM173.967 592.001c0-26.465 21.536-48.001 48.001-48.001 26.463 0 47.999 21.536 47.999 48.001 0 26.463-21.536 47.999-47.999 47.999-26.465 0-48.001-21.536-48.001-47.999zM237.967 592.001c0-8.817-7.168-16.001-15.999-16.001-8.833 0-16.001 7.184-16.001 16.001 0 8.815 7.168 15.999 16.001 15.999 8.831 0 15.999-7.184 15.999-15.999zM189.968 816c-26.465 0-48-21.535-48-48s21.536-47.999 48-47.999c26.463 0 47.999 21.535 47.999 47.999s-21.536 48-47.999 48zM189.968 751.999c-8.833 0-16.001 7.184-16.001 16.001s7.168 16.001 16.001 16.001c8.831 0 15.999-7.184 15.999-16.001s-7.168-16.001-15.999-16.001zM784.001 431.999h-64c-8.849 0-16.001-7.168-16.001-15.999v-32h-32c-8.847 0-15.999-7.168-15.999-16.001v-64c0-8.831 7.152-15.999 15.999-15.999h32v-32c0-8.833 7.152-16.001 16.001-16.001h64c8.847 0 15.999 7.168 15.999 16.001v32h32c8.847 0 16.001 7.168 16.001 15.999v64c0 8.833-7.153 16.001-16.001 16.001h-32v32c0 8.831-7.152 15.999-15.999 15.999zM815.999 352v-32h-31.999c-8.849 0-16.001-7.168-16.001-16.001v-31.999h-32v31.999c0 8.833-7.152 16.001-15.999 16.001h-32.001v32h32.001c8.847 0 15.999 7.168 15.999 15.999v32.001h32v-32.001c0-8.831 7.152-15.999 16.001-15.999h31.999z" />
<glyph unicode="&#xe902;" glyph-name="check2" d="M505.3 634.7l221.3-221.4-45.2-45.2-176.1 176-176.1-176-45.2 45.2z" />
<glyph unicode="&#xe903;" glyph-name="check21" d="M518.7 261.3l-221.3 221.4 45.2 45.2 176.1-176 176.1 176 45.2-45.2z" />
<glyph unicode="&#xe904;" glyph-name="user-cicrle" d="M384 202.7c-8.2 0-16.4 3.1-22.6 9.4l-170.7 170.6c-12.5 12.5-12.5 32.8 0 45.3s32.8 12.5 45.3 0l148-148 404 404c12.5 12.5 32.8 12.5 45.3 0s12.5-32.8 0-45.3l-426.7-426.7c-6.2-6.2-14.4-9.3-22.6-9.3z" />
<glyph unicode="&#xe905;" glyph-name="right-arrow2" d="M1024 456.383c0 28.475-10.889 55.218-31.026 75.356l-295.295 295.432c-22.256 22.256-58.339 22.256-80.55 0-22.279-22.256-22.233-58.499 0-80.777l240.874-240.783h-801.418c-31.482-0.023-56.585-25.832-56.585-57.337 0-0.068 0-0.569 0-0.638 0-31.482 25.103-57.474 56.585-57.474h801.441l-240.829-240.646c-22.279-22.279-22.279-58.408 0-80.663 22.256-22.301 58.339-22.279 80.595 0.023l295.181 295.455c20.16 20.092 31.026 46.904 31.026 75.379 0 2.802 0 13.873 0 16.675z" />
<glyph unicode="&#xe906;" glyph-name="bucket" d="M973.622 629.679h50.374v132.129h-66.906c-8.439 101.556-93.646 181.679-197.351 181.679-88.096 0-137.512-53.891-157.793-83.058-2.459 0.148-4.873 0.479-7.367 0.479-46.428 0-86.444-27.564-104.811-67.139-22.064 95.080-107.288 166.232-208.992 166.232-112.82 0-205.395-87.518-213.865-198.193h-66.91v-132.129h49.962c3.996-80.746 37.359-153.731 89.301-209.094l42.412-402.943c0.712-46.048 53.577-81.638 99.096-81.638h462.45c45.519 0 98.385 35.594 99.096 81.638l42.415 402.943c51.925 55.328 84.858 128.38 88.889 209.094zM891.075 480.919l15.658 148.759h33.843c-3.023-54.8-20.63-105.77-49.501-148.759zM594.579 827.871c28.621 0 52.869-14.668 68.277-41.305l28.589 16.55c-13.294 22.99-32.123 39.836-54.222 49.233 20.33 24.675 59.458 58.105 122.517 58.105 85.503 0 156.010-65.303 164.319-148.646h-410.391c7.681 37.637 41.041 66.064 80.912 66.064zM990.964 728.779v-66.068h-594.579v16.518c0 27.317 22.229 49.55 49.55 49.55h545.029zM280.775 926.968c94.604 0 172.461-72.702 180.833-165.161h-15.672c-45.533 0-82.582-37.045-82.582-82.582v-148.646c0-27.317-22.229-49.55-49.55-49.55s-49.546 22.236-49.546 49.554v231.225h-164.319c8.375 92.458 86.232 165.161 180.836 165.161zM83.026 629.679h34.237l15.609-148.199c-28.737 42.926-46.823 93.529-49.846 148.199zM33.032 662.711v66.064h198.193v-66.064h-198.193zM809.37 20.298l-0.081-1.716c0-25.517-37.211-49.55-66.064-49.55h-462.45c-28.853 0-66.064 24.030-66.064 49.55l-38.684 367.913c52.108-40.992 116.883-66.297 187.327-69.813v-33.843h297.289v33.874c70.49 3.516 135.183 29.019 187.309 70.077l-38.582-366.493zM396.386 315.871v33.032h231.225v-33.032h-231.225zM853.022 434.97c-50.061-49.497-117.594-81.095-192.379-85.225v32.19h-297.289v-32.222c-74.866 4.147-142.368 35.921-192.446 85.521l-20.429 194.444h80.746v-99.096c0-45.533 37.045-82.582 82.582-82.582s82.582 37.045 82.582 82.582v99.096h477.132l-20.499-194.708zM941.418 183.743c-45.533 0-82.582-37.045-82.582-82.582s37.045-82.582 82.582-82.582 82.582 37.045 82.582 82.582-37.049 82.582-82.582 82.582zM941.418 51.614c-27.317 0-49.55 22.229-49.55 49.55s22.229 49.55 49.55 49.55c27.321 0 49.55-22.229 49.55-49.55s-22.233-49.55-49.55-49.55zM264.257 35.1h33.032v-33.032h-33.032v33.032zM330.321 35.1h33.032v-33.032h-33.032v33.032zM726.707 35.1h33.032v-33.032h-33.032v33.032zM611.093 183.743c0-27.321 22.229-49.55 49.55-49.55s49.55 22.229 49.55 49.55c0 27.321-22.233 49.55-49.55 49.55s-49.55-22.233-49.55-49.55zM677.161 183.743c0-9.101-7.417-16.518-16.518-16.518s-16.518 7.417-16.518 16.518 7.417 16.518 16.518 16.518 16.518-7.413 16.518-16.518z" />
<glyph unicode="&#xe907;" glyph-name="calendar" d="M154.738-64h714.524c74.904 0 135.775 60.872 135.775 135.775v676.599c0 74.904-60.872 135.775-135.775 135.775h-53.854v37.925c0 20.86-17.069 37.925-37.928 37.925s-37.925-17.066-37.925-37.925v-37.925h-455.109v37.925c0 20.86-17.069 37.925-37.928 37.925s-37.925-17.066-37.925-37.925v-37.925h-53.854c-74.904 0-135.775-60.872-135.775-135.775v-676.599c0-74.904 60.872-135.775 135.775-135.775zM94.816 748.374c0 32.995 26.927 59.922 59.922 59.922h53.854v-37.925c0-20.86 17.066-37.925 37.925-37.925s37.925 17.066 37.925 37.925v37.925h455.112v-37.925c0-20.86 17.066-37.925 37.925-37.925s37.925 17.066 37.925 37.925v37.925h53.854c32.995 0 59.922-26.927 59.922-59.922v-110.745h-834.364zM94.816 561.779h834.371v-490.004c0-32.995-26.927-59.922-59.922-59.922h-714.528c-32.995 0-59.922 26.927-59.922 59.922z" />
<glyph unicode="&#xe908;" glyph-name="chat-circle" d="M512 848c-220.927-0.061-400-179.172-400-400.107 0-72.847 19.468-141.147 53.485-199.981l-1.028 1.928-36.016-126.059c-1.173-3.951-1.847-8.491-1.847-13.189 0-26.509 21.49-47.999 47.999-47.999 4.696 0 9.234 0.674 13.523 1.931l-0.339-0.085 126.066 36.016c56.923-33.023 125.25-52.512 198.128-52.512 220.929 0 400.028 179.099 400.028 400.028 0 220.92-179.083 400.012-399.999 400.028h-0.001zM512 80c-0.073 0-0.16 0-0.247 0-69.208 0-133.947 19.131-189.218 52.394l1.657-0.925c-2.337 1.412-5.161 2.248-8.179 2.248-1.565 0-3.078-0.225-4.508-0.644l0.113 0.028-132.629-37.895c-1.317-0.391-2.83-0.615-4.395-0.615-8.837 0-16.002 7.164-16.002 16.002 0 1.565 0.225 3.078 0.644 4.508l-0.028-0.113 37.891 132.625c0.391 1.317 0.616 2.83 0.616 4.396 0 3.018-0.836 5.841-2.289 8.25l0.040-0.072c-32.391 53.698-51.553 118.54-51.553 187.857 0 203.265 164.779 368.044 368.044 368.044s368.044-164.779 368.044-368.044c0-203.25-164.754-368.019-367.998-368.044h-0.002zM656 512c0-8.836-7.164-16-16-16h-256c-8.837 0-16 7.163-16 16s7.163 16 16 16v0h256c8.836 0 16-7.164 16-16v0zM656 384c0-8.836-7.164-16-16-16h-256c-8.837 0-16 7.163-16 16s7.163 16 16 16v0h256c8.836 0 16-7.164 16-16v0z" />
<glyph unicode="&#xe909;" glyph-name="check" d="M512-64c136.752 0 265.328 53.264 362.016 149.968 96.72 96.704 149.984 225.28 149.984 362.032s-53.264 265.328-149.968 362.016c-96.704 96.72-225.28 149.984-362.032 149.984s-265.328-53.264-362.016-149.968c-96.72-96.704-149.984-225.28-149.984-362.032s53.264-265.328 149.968-362.016c96.704-96.72 225.28-149.984 362.032-149.984zM195.232 764.768c84.608 84.624 197.104 131.232 316.768 131.232s232.16-46.608 316.768-131.232c84.624-84.608 131.232-197.104 131.232-316.768s-46.608-232.16-131.232-316.768c-84.608-84.624-197.104-131.232-316.768-131.232s-232.16 46.608-316.768 131.232c-84.624 84.608-131.232 197.104-131.232 316.768s46.608 232.16 131.232 316.768zM382.992 192c0.336 0 0.672 0 1.008 0 8.688 0 17.024 3.536 23.072 9.824l400 416c12.24 12.736 11.856 32.992-0.896 45.248s-32.992 11.84-45.248-0.896l-375.408-390.432-153.088 180.928c-11.424 13.504-31.616 15.184-45.104 3.76-13.488-11.408-15.168-31.616-3.76-45.104l176-208c5.856-6.928 14.368-11.328 23.424-11.328z" />
<glyph unicode="&#xe90a;" glyph-name="right-arrow11" d="M266.84-64c-5.547 0-11.095 2.124-15.32 6.349-8.473 8.473-8.473 22.168 0 30.641l474.999 474.999-474.999 474.999c-8.473 8.473-8.473 22.168 0 30.641s22.168 8.473 30.641 0l490.32-490.298c8.473-8.473 8.473-22.168 0-30.641l-490.32-490.341c-4.247-4.226-9.773-6.349-15.32-6.349z" />
<glyph unicode="&#xe90b;" glyph-name="check3" d="M384 202.7c-8.2 0-16.4 3.1-22.6 9.4l-170.7 170.6c-12.5 12.5-12.5 32.8 0 45.3s32.8 12.5 45.3 0l148-148 404 404c12.5 12.5 32.8 12.5 45.3 0s12.5-32.8 0-45.3l-426.7-426.7c-6.2-6.2-14.4-9.3-22.6-9.3z" />
<glyph unicode="&#xe90c;" glyph-name="check-circle2" d="M512 906.667c253.316 0 458.667-205.352 458.667-458.667s-205.35-458.667-458.667-458.667c-253.315 0-458.667 205.35-458.667 458.667 0 253.315 205.352 458.667 458.667 458.667zM705.293 532.041c12.497 12.495 12.497 32.757 0 45.254s-32.755 12.497-45.252 0l-197.389-197.386c-4.164-4.164-10.918-4.164-15.083 0l-83.608 83.61c-12.497 12.497-32.758 12.497-45.255 0s-12.497-32.759 0-45.257l83.608-83.61c29.157-29.158 76.436-29.158 105.594 0l197.385 197.389z" />
<glyph unicode="&#xe90d;" glyph-name="cleaning" d="M926.99 782.148c0-8.932 7.236-16.168 16.168-16.168s16.168 7.238 16.168 16.168c0 62.406-50.774 113.178-113.178 113.178-8.932 0-16.168-7.236-16.168-16.168s7.238-16.168 16.168-16.168c44.576 0 80.842-36.266 80.842-80.842zM727.578 539.622c8.932 0 16.168 7.236 16.168 16.168s-7.236 16.168-16.168 16.168c-38.634 0-70.064 31.43-70.064 70.064s31.43 70.064 70.064 70.064c38.634 0 70.064-31.43 70.064-70.064 0-20.090-8.646-39.246-23.724-52.552-6.694-5.906-7.332-16.126-1.422-22.822s16.126-7.33 22.822-1.422c22.030 19.44 34.662 47.432 34.662 76.796 0 56.462-45.938 102.4-102.4 102.4s-102.4-45.938-102.4-102.4 45.936-102.4 102.398-102.4zM274.864-31.664h-172.464c-38.632 0-70.064 31.43-70.064 70.064v91.622h199.41c8.93 0 16.168 7.236 16.168 16.168s-7.24 16.168-16.168 16.168h-199.41v220.968c0 25.562 6.358 50.996 18.386 73.552l147.61 276.764h100.784c8.93 0 16.168 7.236 16.168 16.168s-7.24 16.168-16.168 16.168h-94.316v91.622c0 38.634 31.432 70.064 70.064 70.064h307.2v-35.534l-139.27-30.95c-32.238-7.164-54.75-35.23-54.75-68.252v-26.948h-27.486c-8.93 0-16.168-7.236-16.168-16.168s7.24-16.168 16.168-16.168h33.954l41.426-77.67c2.91-5.456 8.5-8.564 14.28-8.564 2.568 0 5.172 0.614 7.594 1.908 7.88 4.202 10.86 13.996 6.658 21.872l-44.088 82.666v39.070c0 17.748 12.1 32.834 29.428 36.688l151.932 33.762c7.398 1.642 12.66 8.202 12.66 15.782v64.674c0 8.932-7.236 16.168-16.168 16.168h-323.37c-56.462 0-102.4-45.938-102.4-102.4v-103.748l-150.272-281.756c-14.518-27.224-22.192-57.918-22.192-88.77v-344.926c0-56.462 45.938-102.4 102.4-102.4h172.464c8.93 0 16.168 7.236 16.168 16.168s-7.24 16.168-16.168 16.168zM684.464 765.978c8.932 0 16.168 7.238 16.168 16.168 0 80.238 65.278 145.516 145.516 145.516s145.516-65.278 145.516-145.516c0-68.94-48.952-128.914-116.396-142.606-8.752-1.774-14.404-10.308-12.626-19.062 1.556-7.666 8.298-12.954 15.828-12.954 1.064 0 2.15 0.106 3.234 0.326 82.45 16.74 142.296 90.040 142.296 174.298 0 98.066-79.786 177.852-177.852 177.852s-177.852-79.786-177.852-177.852c-0.002-8.932 7.236-16.17 16.168-16.17zM878.484 377.936c-26.744 0-48.506 21.76-48.506 48.506 0 8.932-7.236 16.168-16.168 16.168s-16.168-7.236-16.168-16.168c0-44.578 36.264-80.842 80.842-80.842s80.842 36.264 80.842 80.842-36.264 80.842-80.842 80.842c-19.922 0-39.062-7.312-53.9-20.588-6.652-5.956-7.22-16.178-1.266-22.832 5.954-6.652 16.174-7.218 22.832-1.266 8.896 7.964 20.378 12.348 32.332 12.348 26.744 0 48.506-21.76 48.506-48.506 0.002-26.742-21.76-48.504-48.504-48.504zM894.652 81.516c0 32.688-26.596 59.284-59.284 59.284s-59.284-26.596-59.284-59.284c0-32.688 26.596-59.284 59.284-59.284s59.284 26.596 59.284 59.284zM808.422 81.516c0 14.86 12.088 26.948 26.948 26.948s26.948-12.088 26.948-26.948-12.088-26.948-26.948-26.948-26.948 12.088-26.948 26.948zM582.064 81.516c0-32.688 26.596-59.284 59.284-59.284s59.284 26.596 59.284 59.284c0 32.688-26.596 59.284-59.284 59.284s-59.284-26.596-59.284-59.284zM668.294 81.516c0-14.86-12.088-26.948-26.948-26.948s-26.948 12.088-26.948 26.948 12.088 26.948 26.948 26.948 26.948-12.088 26.948-26.948zM409.6 167.748c0-32.688 26.594-59.284 59.284-59.284s59.284 26.596 59.284 59.284c0 32.688-26.594 59.284-59.284 59.284s-59.284-26.596-59.284-59.284zM495.832 167.748c0-14.86-12.088-26.948-26.948-26.948s-26.948 12.088-26.948 26.948c0 14.86 12.088 26.948 26.948 26.948 14.86-0.002 26.948-12.088 26.948-26.948zM964.716 270.148c-0.602 0-1.198-0.028-1.796-0.046-17.926 13.958-40.010 21.604-62.878 21.604h-148.324c-10.882 13.158-27.326 21.558-45.696 21.558s-34.814-8.398-45.696-21.558h-256.116c-56.462 0-102.4-45.938-102.4-102.4v-105.208c-13.158-10.882-21.558-27.326-21.558-45.696 0-25.102 15.69-46.596 37.774-55.228 18.754-29.196 51.328-47.174 86.184-47.174h344.926c8.932 0 16.168 7.236 16.168 16.168s-7.238 16.168-16.168 16.168h-344.926c-15.808 0-30.932 5.412-43.080 14.868 22.038 8.654 37.69 30.126 37.69 55.194 0 32.688-26.594 59.284-59.284 59.284-1.818 0-3.614-0.096-5.39-0.256v91.878c0 38.634 31.432 70.064 70.064 70.064h242.782c-0.162-1.776-0.256-3.572-0.256-5.39 0-32.688 26.596-59.284 59.284-59.284s59.284 26.596 59.284 59.284c0 1.818-0.094 3.614-0.256 5.39h134.994c8.592 0 17.024-1.576 24.91-4.574-11.982-10.854-19.52-26.53-19.52-43.93 0-32.688 26.596-59.284 59.284-59.284 1.818 0 3.614 0.096 5.39 0.256v-113.436c0-38.634-31.43-70.064-70.064-70.064h-86.232c-8.932 0-16.168-7.238-16.168-16.168 0-8.932 7.236-16.168 16.168-16.168h86.232c56.462 0 102.4 45.938 102.4 102.4v126.766c13.158 10.882 21.558 27.326 21.558 45.696 0 32.69-26.596 59.286-59.284 59.286zM339.536 65.348c14.86 0 26.948-12.088 26.948-26.948s-12.088-26.948-26.948-26.948-26.948 12.088-26.948 26.948 12.088 26.948 26.948 26.948zM706.020 227.032c-14.86 0-26.948 12.088-26.948 26.948s12.088 26.948 26.948 26.948 26.948-12.088 26.948-26.948-12.088-26.948-26.948-26.948zM964.716 183.916c-14.86 0-26.948 12.088-26.948 26.948s12.088 26.948 26.948 26.948 26.948-12.088 26.948-26.948-12.088-26.948-26.948-26.948zM576.674 321.886c8.932 0 16.168 7.236 16.168 16.168v45.272c0 30.852-7.674 61.548-22.194 88.768l-77.512 145.334c-4.204 7.88-14 10.856-21.874 6.658-7.88-4.202-10.86-13.996-6.656-21.872l77.514-145.334c6.042-11.33 10.652-23.39 13.746-35.824h-431.908c-8.93 0-16.168-7.236-16.168-16.168s7.24-16.168 16.168-16.168h436.446c0.062-1.796 0.102-3.592 0.102-5.39v-45.272c0-8.934 7.236-16.172 16.168-16.172z" />
<glyph unicode="&#xe90e;" glyph-name="cleaning2" d="M425.768-31.664h-344.926c-26.746 0-48.506 21.76-48.506 48.506s21.758 48.506 48.506 48.506h108.542c9.846 0 19.094 3.842 26.042 10.814 7.086 7.112 10.97 16.608 10.934 26.686v0.226c0 26.744 21.758 48.506 48.506 48.506h64.674c8.93 0 16.168 7.236 16.168 16.168s-7.24 16.168-16.168 16.168h-64.674c-44.578 0-80.842-36.264-80.842-80.842v-0.282c0.006-1.992-0.938-3.238-1.502-3.806-0.862-0.864-1.916-1.302-3.136-1.302h-108.544c-44.578 0-80.842-36.264-80.842-80.842s36.264-80.842 80.842-80.842h344.926c8.93 0 16.168 7.236 16.168 16.168s-7.238 16.168-16.168 16.168zM964.716 722.864h-73.706c-6.064 12.734-19.064 21.558-34.084 21.558h-107.79c-15.020 0-28.018-8.824-34.084-21.558h-73.706c-8.93 0-16.168-7.238-16.168-16.168s7.24-16.168 16.168-16.168h70.064v-4.408c0-31.226 22.984-57.014 53.47-59.982 3.758-0.366 7.504-0.378 11.204-0.038v-69.274c0-32.66 25.098-59.138 57.14-60.278 16.22-0.544 31.63 5.312 43.312 16.584 11.682 11.274 18.118 26.426 18.118 42.66v5.39h52.426l-28.464-327.36c-0.774-8.894 5.812-16.736 14.706-17.508 0.476-0.042 0.95-0.060 1.42-0.060 8.296 0 15.358 6.35 16.088 14.77l28.876 332.080c25.454 6.652 44.294 29.846 44.294 57.36v43.116c0 32.688-26.594 59.284-59.284 59.284zM862.314 706.694v-150.908c0-7.38-2.926-14.266-8.238-19.394-5.308-5.122-12.296-7.748-19.708-7.536-14.308 0.51-25.95 13.056-25.95 27.964v91.014c0 5.782-3.084 11.12-8.092 14.008-2.5 1.44-5.288 2.16-8.076 2.16-2.798 0-5.596-0.726-8.102-2.178-4.91-2.844-10.492-4.060-16.138-3.508-13.606 1.326-24.264 13.536-24.264 27.798v20.578c0 2.972 2.418 5.39 5.39 5.39h107.79c2.97 0 5.39-2.416 5.39-5.39h-0.002zM991.664 620.464c0-14.818-12.020-26.88-26.824-26.948-0.104 0-0.204 0-0.31 0h-69.876v97.010h70.064c14.86 0 26.948-12.088 26.948-26.948v-43.114zM727.578 561.178c8.93 0 16.168 7.236 16.168 16.168s-7.24 16.168-16.168 16.168h-86.232c-8.93 0-16.168-7.236-16.168-16.168s7.24-16.168 16.168-16.168h86.232zM998.266 133.434c-32.764 55.944-93.516 93.598-162.898 93.598h-129.348c-14.86 0-26.948 12.088-26.948 26.948v21.558c0 5.788-0.848 11.524-2.492 17.022 14.582 10.812 24.050 28.146 24.050 47.652 0 32.688-26.594 59.284-59.284 59.284h-26.946v5.39c0 15.022-8.822 28.020-21.558 34.086v461.744c0 32.688-26.594 59.284-59.284 59.284s-59.284-26.596-59.284-59.284v-177.852h-199.41c-32.69 0-59.284-26.596-59.284-59.284v-43.116c0-27.512 18.84-50.706 44.292-57.366l28.876-332.078c0.774-8.9 8.606-15.52 17.51-14.706 8.896 0.772 15.48 8.612 14.706 17.508l-28.464 327.356h181.774v-122.21c-12.736-6.066-21.558-19.064-21.558-34.086v-5.39h-26.948c-32.69 0-59.284-26.596-59.284-59.284 0-19.506 9.468-36.84 24.050-47.652-1.644-5.496-2.492-11.232-2.492-17.022v-150.906c0-104.012 84.62-188.632 188.632-188.632h409.6c20.802 0 37.726 16.926 37.726 37.726v64.678c0 34.040-9.066 66.004-24.904 93.604-0.252 0.492-0.53 0.968-0.83 1.43zM506.61 900.716c0 14.86 12.088 26.948 26.948 26.948s26.948-12.088 26.948-26.948v-458.106h-53.894v458.106zM275.050 593.516c-0.104-0.002-0.21-0.002-0.31 0-14.802 0.066-26.824 12.128-26.824 26.948v43.116c0 14.86 12.088 26.948 26.948 26.948h199.41v-97.010h-199.224zM991.664-26.274c0-2.972-2.418-5.39-5.39-5.39h-237.138c-86.182 0-156.294 70.112-156.294 156.294v107.79c0 8.932-7.24 16.168-16.168 16.168-8.93 0-16.168-7.236-16.168-16.168v-107.79c0-64.036 32.074-120.722 81-154.836-76.090 10.464-134.894 75.914-134.894 154.836v107.79c0 8.932-7.24 16.168-16.168 16.168-8.93 0-16.168-7.236-16.168-16.168v-107.79c0-64.036 32.074-120.722 81-154.84-76.090 10.464-134.894 75.914-134.894 154.836v150.906c0 1.884 0.198 3.756 0.582 5.584 1.584-0.13 3.19-0.194 4.808-0.194h129.348c8.93 0 16.168 7.236 16.168 16.168s-7.24 16.168-16.168 16.168h-129.348c-14.86 0-26.948 12.088-26.948 26.948s12.088 26.948 26.948 26.948h43.116c8.93 0 16.168 7.236 16.168 16.168v21.558c0 2.972 2.418 5.39 5.39 5.39h86.232c2.97 0 5.39-2.416 5.39-5.39v-21.558c0-8.932 7.24-16.168 16.168-16.168h43.116c14.86 0 26.948-12.088 26.948-26.948s-12.088-26.948-26.948-26.948h-21.558c-8.93 0-16.168-7.236-16.168-16.168s7.24-16.168 16.168-16.168h21.558c1.616 0 3.22 0.064 4.808 0.194 0.386-1.828 0.582-3.7 0.582-5.584v-21.558c0-32.688 26.594-59.284 59.284-59.284h129.348c47.046 0 89.306-20.898 117.984-53.894h-204.222c-26.512 0-52.694 6.754-75.718 19.53-7.808 4.33-17.652 1.518-21.982-6.292-4.334-7.806-1.516-17.648 6.292-21.98 27.812-15.434 59.42-23.59 91.408-23.59h225.928c8.314-16.512 13.788-34.696 15.77-53.894h-241.696c-26.51 0-52.69 6.752-75.712 19.528-7.81 4.336-17.65 1.512-21.982-6.294-4.334-7.808-1.516-17.65 6.292-21.98 27.808-15.432 59.414-23.586 91.4-23.586h242.526v-48.512z" />
<glyph unicode="&#xe90f;" glyph-name="cleaning3" d="M406.625 225.775h-123.213c-7.604 0-13.775-6.171-13.775-13.775v-111.629c0-4.725 2.424-9.119 6.419-11.639l61.614-38.927c2.245-1.419 4.807-2.135 7.356-2.135s5.11 0.716 7.356 2.135l61.614 38.927c3.995 2.521 6.419 6.915 6.419 11.639v111.629c-0.014 7.604-6.185 13.775-13.788 13.775zM392.85 107.961l-47.839-30.221-47.839 30.221v90.265h95.664v-90.265zM314.197 568.624c12.741-114.604 103.502-166.259 165.198-166.259s152.443 51.655 165.198 166.259c18.361 9.67 43.114 33.706 41.861 76.421-0.248 8.251-0.978 33.321-19.367 40.277-18.086 6.846-36.337-11.281-39.822-14.987-5.193-5.565-4.904-14.284 0.647-19.477s14.284-4.918 19.477 0.647c2.411 2.576 6.639 5.84 9.449 7.177 0.771-2.080 1.846-6.364 2.080-14.463 1.171-39.822-27.935-51.779-30.827-52.867l-53.638-11.75c-63.101 6.791-127.015 6.791-190.103 0l-53.735 11.763c-4.063 1.598-31.888 13.967-30.745 52.839 0.234 8.099 1.309 12.383 2.080 14.463 2.645-1.267 6.694-4.284 9.449-7.177 5.193-5.551 13.912-5.827 19.477-0.647 5.551 5.193 5.84 13.912 0.647 19.477-3.471 3.705-21.654 21.888-39.822 14.987-18.389-6.942-19.133-32.026-19.367-40.277-1.267-42.715 23.499-66.751 41.861-76.407zM343.262 560.414l27.522-6.033 8.113-73.542c-16.695 19.574-29.973 45.676-35.635 79.576zM579.867 480.852l8.113 73.542 27.522 6.033c-5.661-33.913-18.94-60.016-35.635-79.576zM560.17 553.444l-10.951-99.149c-0.028-0.234 0.069-0.441 0.055-0.661-25.276-16.874-52.013-23.72-69.892-23.72-17.852 0-44.519 6.832-69.754 23.637l-11.020 99.893c53.652 5.041 107.882 5.041 161.562 0zM405.495 371.524l-39.974-18.761-3.513 64.134c-0.413 7.604-7.011 13.444-14.505 13.003-7.59-0.413-13.416-6.915-13.003-14.505l0.73-13.389c-47.219-17.053-90.044-48.004-122.29-87.716-1.887 11.061-5.896 21.654-14.573 30.387-3.513 3.54-7.783 6.419-12.466 8.926v103.998c3.843-1.088 8.072-2.975 11.86-6.309 9.229-8.086 13.899-22.453 13.899-42.715v-43.638c0-7.604 6.171-13.775 13.775-13.775s13.775 6.171 13.775 13.775v43.624c0 28.541-7.838 49.878-23.293 63.418-10.028 8.788-21.268 12.356-30.097 13.719-0.22 7.411-6.226 13.375-13.692 13.375h-158.352c-7.604 0-13.775-6.171-13.775-13.775v-41.847c0-7.604 6.171-13.775 13.775-13.775h42.563c1.928-20.331 8.706-58.018 32.095-79.025-2.769-1.86-5.537-3.705-7.824-6.006-16.447-16.543-16.323-39.753-16.213-60.222l0.014-95.595c0-25.207 12.521-47.495 31.64-61.118-7.962-11.984-15.813-22.081-15.772-22.081-41.654-45.484-37.164-133.324-36.957-137.043 0.413-7.287 6.446-12.989 13.761-12.989h180.874c7.301 0 13.334 5.703 13.761 12.989 0.207 3.719 4.697 91.573-36.668 136.712-0.152 0.179-13.017 15.317-22.604 30.359 13.664 13.595 22.122 32.412 22.122 53.17l0.014 80.443c28.431 46.696 72.413 83.791 122.235 103.791l2.314-42.219c0.248-4.573 2.755-8.719 6.681-11.075 2.176-1.295 4.614-1.956 7.066-1.956 1.997 0 3.995 0.427 5.854 1.309l58.473 27.439c6.887 3.237 9.849 11.433 6.612 18.32-3.237 6.915-11.447 9.849-18.32 6.639zM27.549 471.541h15.565v-14.312h-15.565v14.312zM129.357 363.039c-45.318 0-46.241 79.672-46.241 80.471-0.055 7.108-5.524 12.755-12.452 13.458v14.587h87.689v-108.53l-18.747 0.014c-0.041 0-0.083 0-0.124 0s-0.069 0-0.11 0h-10.014zM91.945 284.579c-0.083 16.571-0.179 32.232 8.196 40.649 6.75 6.791 19.946 10.234 39.189 10.248h0.331c19.243-0.028 32.439-3.457 39.175-10.248 5.592-5.634 7.383-14.518 7.948-24.725h-32.026c-7.604 0-13.775-6.171-13.775-13.775s6.171-13.775 13.775-13.775h32.274v-25.083h-32.274c-7.604 0-13.775-6.171-13.775-13.775s6.171-13.775 13.775-13.775h32.26v-23.251h-32.26c-7.604 0-13.775-6.171-13.775-13.775s6.171-13.775 13.775-13.775h28.059c-7.424-16.585-24.009-28.197-43.321-28.197-26.199 0-47.522 21.323-47.522 47.522l-0.028 95.733zM70.705-16.85c0.096 5.413 0.427 12.356 1.088 19.987h151.451c0.661-7.617 0.978-14.573 1.074-19.987h-153.614zM194.428 87.052c13.416-14.642 20.786-35.924 24.904-56.352h-143.558c4.201 20.579 11.75 42.109 25.51 57.151 0.51 0.647 10.565 13.513 20.056 28.224 5.827-1.446 11.874-2.314 18.141-2.314 10.744 0 20.937 2.3 30.18 6.391 10.634-16.516 23.83-32.026 24.767-33.1zM292.020 729.221v-14.408c0-7.604 6.171-13.775 13.775-13.775s13.775 6.171 13.775 13.775v18.871c41.255 16.282 100.981 31.792 159.812 31.792s118.558-15.51 159.812-31.792v-18.871c0-7.604 6.171-13.775 13.775-13.775s13.775 6.171 13.775 13.775v14.408c3.664 2.562 5.896 6.736 5.896 11.226v147.374c0 5.441-3.196 10.372-8.182 12.59-43.472 19.339-114.921 40.001-185.075 40.001-70.168 0-141.616-20.662-185.075-40.001-4.973-2.218-8.182-7.149-8.182-12.59v-147.36c0-4.491 2.245-8.664 5.896-11.24zM313.674 878.73c41.31 17.094 104.080 34.12 165.708 34.12s124.384-17.025 165.708-34.12v-117.717c-43.652 16.64-105.169 32.026-165.708 32.026-60.553 0-122.043-15.386-165.708-32.026v117.717zM1010.225 506.266h-347.532c-7.604 0-13.775-6.171-13.775-13.775v-48.528c0-7.604 6.171-13.775 13.775-13.775h32.164l133.902-95.265v-129.839c-23.086-1.102-40.125-6.805-51.172-17.921-16.447-16.543-16.323-39.753-16.213-60.222l0.014-95.595c0-41.393 33.679-75.071 75.071-75.071s75.071 33.679 75.071 75.071l0.014 95.595c0.11 20.469 0.234 43.679-16.213 60.222-9.064 9.119-21.97 14.711-39.023 17.067v131.079c58.321 45.566 108.351 84.273 122.056 94.879h31.861c7.604 0 13.775 6.171 13.775 13.775v48.528c0 7.617-6.171 13.775-13.775 13.775zM883.995 127.081l-0.014-95.747c0-26.199-21.323-47.522-47.522-47.522-19.312 0-35.896 11.626-43.321 28.197h28.059c7.604 0 13.775 6.171 13.775 13.775s-6.171 13.775-13.775 13.775h-32.26v23.251h32.26c7.604 0 13.775 6.171 13.775 13.775s-6.171 13.775-13.775 13.775h-32.274v25.083h32.274c7.604 0 13.775 6.171 13.775 13.775s-6.171 13.775-13.775 13.775h-32.026c0.565 10.207 2.355 19.092 7.948 24.725 6.763 6.805 20.014 10.262 39.34 10.262s32.577-3.444 39.34-10.262c8.375-8.402 8.292-24.050 8.196-40.635zM996.451 457.739h-22.783c-3.044 0-6.006-1.006-8.416-2.865 0 0-55.635-42.963-123.103-95.65l-134.908 95.981c-2.328 1.653-5.124 2.548-7.989 2.548h-22.783v20.965h319.983v-20.979zM620.172 375.105l-2.424-44.244c-0.248-4.573-2.755-8.719-6.681-11.075-2.176-1.295-4.614-1.956-7.066-1.956-1.997 0-3.995 0.427-5.854 1.309l-58.473 27.439c-6.887 3.237-9.849 11.433-6.612 18.32 3.223 6.901 11.447 9.849 18.32 6.612l39.974-18.761 3.513 64.134c0.413 7.604 6.915 13.416 14.505 13.003s13.416-6.915 13.003-14.505l-0.634-11.502c79.975-27.039 146.41-92.909 173.449-172.072 2.466-7.19-1.391-15.028-8.582-17.494-1.474-0.51-2.975-0.744-4.449-0.744-5.73 0-11.075 3.609-13.031 9.325-23.527 68.831-80.195 126.423-148.958 152.209zM493.156 309.194v-336.65c0-7.604-6.171-13.775-13.775-13.775s-13.775 6.171-13.775 13.775v336.65c0 7.604 6.171 13.775 13.775 13.775s13.775-6.171 13.775-13.775zM671.165 546.089h330.589c7.604 0 13.775-6.171 13.775-13.775s-6.171-13.775-13.775-13.775h-330.589c-7.604 0-13.775 6.171-13.775 13.775s6.157 13.775 13.775 13.775z" />
<glyph unicode="&#xe910;" glyph-name="clock" d="M512-64c-136.76 0-265.334 53.259-362.040 149.96-96.701 96.706-149.96 225.28-149.96 362.040s53.259 265.334 149.96 362.040c96.706 96.701 225.28 149.96 362.040 149.96s265.334-53.259 362.040-149.96c96.701-96.706 149.96-225.28 149.96-362.040s-53.259-265.334-149.96-362.040c-96.706-96.701-225.28-149.96-362.040-149.96zM512 896.66c-247.392 0-448.66-201.268-448.66-448.66s201.268-448.66 448.66-448.66 448.66 201.268 448.66 448.66-201.268 448.66-448.66 448.66zM543.67 416.87h-364.2v63.34h300.86v300.325h63.34z" />
<glyph unicode="&#xe911;" glyph-name="close" d="M579.88 448l190 190c8.712 8.697 14.101 20.719 14.101 34 0 26.532-21.509 48.041-48.041 48.041-13.251 0-25.249-5.365-33.941-14.042l-189.999-189.999-190 190c-8.701 8.701-20.722 14.083-34 14.083-26.556 0-48.083-21.528-48.083-48.083 0-13.278 5.382-25.299 14.083-34l190-190-190-190c-8.701-8.701-14.083-20.722-14.083-34 0-26.556 21.528-48.083 48.083-48.083 13.278 0 25.299 5.382 34 14.083l190 190 190-190c8.701-8.701 20.722-14.083 34-14.083 26.556 0 48.083 21.528 48.083 48.083 0 13.278-5.382 25.299-14.083 34v0z" />
<glyph unicode="&#xe912;" glyph-name="comment-outline" d="M80.455 960c-44.573 0-80.455-35.882-80.455-80.455v-943.545l219.429 219.429h724.116c44.573 0 80.455 35.882 80.455 80.455v643.661c0 44.573-35.882 80.455-80.455 80.455h-863.089zM109.714 886.857h804.571c20.261 0 36.571-16.311 36.571-36.571v-585.143c0-20.261-16.311-36.571-36.571-36.571h-731.429l-109.714-109.714v731.429c0 20.261 16.311 36.571 36.571 36.571z" />
<glyph unicode="&#xe913;" glyph-name="cooking-food" d="M937.696 453.008c-5.824 9.072-14.448 15.6-24.336 20.080-9.904 4.48-21.28 6.896-33.36 6.912h-218c-1.776 0-3.408-0.464-5.008-1.008-1.584 0.544-3.216 1.008-4.992 1.008h-556c-8.832 0-16-7.152-16-16v-112c0.064-35.312 28.688-63.936 64-64h460c35.312 0.064 63.936 28.688 64 64v32h212c16.112 0.048 30.96 4.272 42.768 12.096 5.888 3.936 11.072 8.848 14.928 14.896 3.872 6 6.32 13.312 6.304 21.008 0.016 7.696-2.432 15.008-6.304 21.008zM626.592 329.408c-5.888-5.84-13.808-9.408-22.592-9.408h-460c-8.784 0-16.704 3.568-22.592 9.408-5.84 5.872-9.408 13.792-9.408 22.592v96h524v-96c0-8.8-3.568-16.72-9.408-22.592zM910.72 428.176c-1.488-2.4-5.056-5.664-10.512-8.112-5.408-2.448-12.496-4.080-20.208-4.064h-212v32h212c10.288 0.048 19.44-2.944 25.024-6.72 2.8-1.856 4.688-3.856 5.696-5.456 1.008-1.632 1.264-2.736 1.28-3.824-0.016-1.088-0.272-2.192-1.28-3.824zM160 416c-8.832 0-16-7.152-16-16v-32c0-8.848 7.168-16 16-16s16 7.152 16 16v32c0 8.848-7.168 16-16 16zM184.384 693.008c-18.048-24.784-24.448-50.624-24.384-73.104 0.24-45.104 23.552-76.624 24.384-78.016 5.184-7.152 15.2-8.752 22.352-3.568 7.136 5.168 8.72 15.136 3.584 22.304v0l-0.032 0.048c-0.576 0.576-18.512 27.088-18.288 59.232 0.064 16.736 4.336 35.008 18.288 54.336 18.048 24.784 24.448 50.64 24.384 73.12-0.24 45.104-23.552 76.64-24.384 78.032-5.184 7.152-15.184 8.752-22.336 3.568-7.136-5.168-8.72-15.136-3.584-22.304v0l0.032-0.048c0.576-0.576 18.512-27.104 18.288-59.248-0.080-16.736-4.352-35.024-18.304-54.352zM520.384 693.008c-18.048-24.784-24.448-50.624-24.384-73.104 0.24-45.104 23.552-76.624 24.384-78.016 5.184-7.152 15.2-8.752 22.352-3.568 7.136 5.168 8.72 15.136 3.584 22.304v0l-0.032 0.048c-0.576 0.576-18.512 27.088-18.288 59.232 0.064 16.736 4.336 35.008 18.288 54.336 18.048 24.784 24.448 50.64 24.384 73.12-0.24 45.104-23.552 76.64-24.384 78.032-5.184 7.152-15.184 8.752-22.336 3.568-7.136-5.168-8.72-15.136-3.584-22.304v0l0.032-0.048c0.576-0.576 18.512-27.104 18.288-59.248-0.080-16.736-4.352-35.024-18.304-54.352zM352.384 692.992c-18.048-24.784-24.448-50.624-24.384-73.088 0.24-45.104 23.552-76.624 24.384-78.016 5.184-7.152 15.2-8.752 22.352-3.568 7.136 5.168 8.72 15.136 3.584 22.304v0l-0.032 0.048c-0.576 0.576-18.512 27.088-18.288 59.232 0.064 16.72 4.336 34.992 18.288 54.32 18.048 24.8 24.448 50.656 24.384 73.136-0.24 45.104-23.552 76.64-24.384 78.032-5.184 7.152-15.2 8.752-22.336 3.568-7.136-5.168-8.72-15.136-3.584-22.304v0l0.032-0.048c0.576-0.576 18.496-27.088 18.288-59.248-0.080-16.736-4.352-35.024-18.304-54.368zM608 144h-60.24c0.656 1.2 1.392 2.336 2 3.584 5.328 11.088 8.24 23.92 8.24 37.6-0.016 11.056-3.536 20.896-8.112 29.12-6.96 12.368-16.384 21.76-24.096 28.448-7.712 6.64-13.792 10.48-14.272 10.784-5.216 3.296-11.824 3.296-17.040 0-0.64-0.4-11.216-7.040-22.384-18.368-5.584-5.696-11.344-12.592-15.968-20.864-4.592-8.24-8.096-18.064-8.112-29.12 0.016-15.216 3.776-29.296 10.336-41.168h-38.592c0.656 1.2 1.392 2.336 2 3.584 5.328 11.088 8.24 23.92 8.24 37.6-0.016 11.056-3.536 20.896-8.112 29.12-6.96 12.368-16.384 21.76-24.096 28.448-7.712 6.624-13.792 10.464-14.272 10.768-5.216 3.296-11.824 3.296-17.040 0-0.64-0.4-11.216-7.040-22.384-18.368-5.584-5.696-11.344-12.592-15.968-20.864-4.592-8.24-8.096-18.064-8.112-29.12 0.016-15.216 3.776-29.296 10.336-41.168h-35.28c0.208 0.416 0.48 0.816 0.688 1.248 5.312 11.072 8.24 23.904 8.24 37.568-0.016 11.056-3.536 20.896-8.112 29.136-6.96 12.368-16.384 21.76-24.096 28.448-7.712 6.64-13.792 10.48-14.272 10.784-5.216 3.296-11.824 3.296-17.040 0-0.64-0.4-11.216-7.040-22.384-18.384-5.584-5.68-11.344-12.576-15.968-20.848-4.592-8.256-8.096-18.080-8.112-29.136 0.016-14.208 3.216-27.456 8.976-38.832h-58.992c-8.832 0-16-7.152-16-16s7.168-16 16-16h464c8.832 0 16 7.152 16 16s-7.168 16-16 16zM484.064 198.72c4.016 7.296 11.024 14.656 17.040 19.792 0.672 0.576 1.248 1.008 1.872 1.536 2.784-2.288 5.84-4.944 8.896-8.128 4.016-4.176 7.776-8.976 10.32-13.664 2.56-4.72 3.824-9.136 3.824-13.088 0.032-12.064-3.6-22.72-8.464-29.504-2.416-3.408-5.072-5.824-7.536-7.28-2.496-1.456-4.672-2.048-7.008-2.064-2.32 0.016-4.512 0.608-7.008 2.064-3.68 2.16-7.84 6.592-10.912 13.040-3.104 6.432-5.088 14.704-5.088 23.744-0.016 4.080 1.344 8.656 4.064 13.552zM356.064 198.72c4.016 7.296 11.024 14.656 17.040 19.792 0.672 0.576 1.248 1.008 1.872 1.536 2.784-2.288 5.84-4.944 8.896-8.128 4.016-4.176 7.776-8.976 10.32-13.664 2.56-4.72 3.824-9.136 3.824-13.088 0.032-12.064-3.6-22.72-8.464-29.504-2.416-3.408-5.072-5.824-7.536-7.28-2.496-1.456-4.672-2.048-7.008-2.064-2.32 0.016-4.512 0.608-7.008 2.064-3.68 2.16-7.84 6.592-10.912 13.040-3.104 6.432-5.088 14.704-5.088 23.744-0.016 4.080 1.344 8.656 4.064 13.552zM242 146.064c-3.68 2.16-7.84 6.592-10.928 13.040-3.088 6.416-5.088 14.672-5.072 23.712-0.016 4.080 1.344 8.672 4.064 13.568 4.016 7.296 11.024 14.656 17.040 19.792 0.672 0.576 1.248 1.008 1.872 1.552 2.784-2.304 5.84-4.96 8.88-8.144 4.016-4.176 7.776-8.976 10.32-13.664 2.56-4.72 3.824-9.136 3.824-13.088 0.032-12.064-3.584-22.72-8.464-29.488-2.416-3.408-5.072-5.824-7.536-7.28-2.496-1.456-4.672-2.048-7.008-2.064-2.32 0.016-4.496 0.608-6.992 2.064z" />
<glyph unicode="&#xe914;" glyph-name="diamond-origami" d="M808.16 782.24c-8.8 12.48-23.36 20-38.72 20h-507.52c-15.2 0-29.6-7.36-38.72-19.52l-152.32-205.76c-10.24-13.92-8.96-32.96 3.040-45.28l415.2-428.32c11.84-12.16 31.52-13.6 45.6 0l415.2 428.32c11.84 12.32 13.44 31.36 3.52 45.28l-145.28 205.28zM641.12 538.4l-128.8-384-121.76 384h250.56zM397.76 570.4l117.92 185.92 118.4-185.92h-236.32zM544.8 770.24h214.24l-97.12-184-117.12 184zM369.92 586.24l-97.6 184h214.24l-116.64-184zM476.16 162.72l-364.32 375.68h245.12l119.2-375.68zM674.88 538.4h237.12l-362.72-374.4 125.6 374.4zM689.92 570.4l97.76 185.28 131.2-185.28h-228.96zM243.52 756.32l98.72-185.92h-236.32l137.6 185.92z" />
<glyph unicode="&#xe915;" glyph-name="dish" d="M974.454 332.389c0 9.002 4.905 16.137 14.319 29.019 14.865 20.348 35.227 48.243 35.227 103.11 0 79.94-57.989 137.597-115.614 147.11v100.629h-33.032v66.064h-99.096v-35.146c-71.663 132.527-211.42 216.825-363.35 216.825-227.677 0-412.904-185.227-412.904-412.904s185.227-412.904 412.904-412.904c81.606 0 162.518 23.914 231.225 67.717v-183.328c0-45.533 37.045-82.582 82.582-82.582h198.193c45.533 0 82.582 37.045 82.582 82.582v198.193c0 42.76-13.065 67.766-22.61 86.017-6.050 11.596-10.426 19.967-10.426 29.597zM875.357 679.225v-66.064h-99.096v66.064h99.096zM809.293 745.289h33.032v-33.032h-33.032v33.032zM776.261 713.448v-1.191h-2.611l2.611 1.191zM666.735 302.792c-7.367-14.104-16.764-32.32-20.693-59.525-67.347-48.969-149.844-76.039-233.135-76.039-209.457 0-379.871 170.397-379.871 379.868 0 209.457 170.414 379.871 379.871 379.871 145.489 0 278.76-84.083 341.966-214.711h-11.645v-100.633c-12.765-2.114-25.499-6.557-37.658-13.114-24.477 140.289-146.895 245.875-292.667 245.875-163.92 0-297.289-133.369-297.289-297.289s133.369-297.289 297.289-297.289c101.080 0 190.977 43.289 246.104 116.918 1.29-1.8 2.611-3.633 3.83-5.317 9.415-12.882 14.319-20.017 14.319-29.019 0-9.63-4.376-18.001-10.422-29.597zM640.644 397.943c-48.278-73.231-130.575-115.1-227.74-115.1-145.704 0-264.257 118.553-264.257 264.257s118.553 264.257 264.257 264.257c135.183 0 247.658-102.169 262.326-234.925-27.846-26.394-47.616-65.338-47.616-111.915 0-28.67 5.599-49.864 13.030-66.575zM924.904-30.968h-198.193c-27.317 0-49.55 22.229-49.55 49.55v198.193c0 34.649 10.010 53.81 18.843 70.722 6.969 13.361 14.189 27.152 14.189 44.892 0 20.2-10.503 34.586-20.679 48.507-13.526 18.53-28.871 39.522-28.871 83.622 0 71.631 57.724 115.614 99.096 115.614h132.129c41.372 0 99.096-43.983 99.096-115.614 0-44.099-15.345-65.088-28.871-83.622-10.172-13.925-20.679-28.307-20.679-48.507 0-17.737 7.216-31.528 14.189-44.892 8.837-16.912 18.843-36.073 18.843-70.722v-198.193h0.007c0-27.317-22.229-49.55-49.55-49.55zM693.679 481.032h132.129v-33.032h-132.129v33.032zM710.196 51.614h231.225v-33.032h-231.225v33.032zM924.904 481.032h33.032v-33.032h-33.032v33.032zM858.839 481.032h33.032v-33.032h-33.032v33.032zM148.65 200.261h-33.032c0-63.735-51.861-115.614-115.614-115.614v-33.032c63.753 0 115.614-51.875 115.614-115.614h33.032c0 63.735 51.861 115.614 115.614 115.614v33.032c-63.756 0-115.614 51.879-115.614 115.614zM132.132 4.066c-14.171 27.416-36.651 49.895-64.067 64.067 27.416 14.171 49.895 36.651 64.067 64.067 14.171-27.416 36.651-49.895 64.067-64.067-27.419-14.171-49.899-36.651-64.067-64.067zM330.325 613.161h-33.032c0-45.533-37.045-82.582-82.582-82.582v-33.032c45.533 0 82.582-37.045 82.582-82.582h33.032c0 45.533 37.045 82.582 82.582 82.582v33.032c-45.54 0.004-82.582 37.049-82.582 82.582zM313.811 474.479c-9.76 16.201-23.403 29.829-39.589 39.589 16.201 9.76 29.829 23.403 39.589 39.589 9.76-16.201 23.403-29.829 39.589-39.589-16.187-9.763-29.829-23.406-39.589-39.589z" />
<glyph unicode="&#xe916;" glyph-name="door-key" d="M1021.218-45.227l-54.221 545.229c-8.021 77.38-72.226 135.731-149.402 135.731h-134.946v119.467h68.267v-34.133c0-9.404-7.646-17.067-17.067-17.067-9.438 0-17.067-7.646-17.067-17.067s7.629-17.067 17.067-17.067c28.228 0 51.2 22.972 51.2 51.2v187.733c0 28.228-22.972 51.2-51.2 51.2h-614.4c-28.228 0-51.2-22.972-51.2-51.2v-187.733c0-28.228 22.972-51.2 51.2-51.2 9.438 0 17.067 7.646 17.067 17.067s-7.629 17.067-17.067 17.067c-9.421 0-17.067 7.663-17.067 17.067v34.133h68.267v-580.267c0-41.199 29.372-75.674 68.267-83.61v-18.79c0-2.731 0.717-5.325 1.946-7.612 8.448-38.178 44.134-76.015 92.45-76.015 40.055 0 71.151 26.078 85.521 56.73 17.254-19.558 41.762-33.69 69.12-33.69 32.119 0 58.948 18.688 75.793 42.069l28.023-105.353c2.014-7.458 8.772-12.663 16.521-12.663h395.947c4.813 0 9.421 2.048 12.646 5.615s4.813 8.346 4.335 13.158zM187.716 789.333h-85.333v119.467c0 9.404 7.646 17.067 17.067 17.067h614.4c9.421 0 17.067-7.663 17.067-17.067v-119.467h-563.2zM392.516 72.55c-5.205-24.303-28.587-49.51-59.204-49.51-31.727 0-55.689 27.085-59.682 52.173-0.137 0.819-0.341 1.638-0.58 2.423v11.964h119.467v-17.050zM410.3 123.733c-0.119 0-0.239-0.068-0.358-0.068s-0.239 0.068-0.358 0.068h-153.6c-28.228 0-51.2 22.972-51.2 51.2v221.867h51.2c9.438 0 17.067 7.646 17.067 17.067s-7.629 17.067-17.067 17.067h-51.2v170.667h51.2c9.438 0 17.067 7.646 17.067 17.067s-7.629 17.067-17.067 17.067h-51.2v119.467h443.733v-482.731l-239.053 135.236c-2.423 1.365-5.069 1.997-7.731 1.997-42.24 14.046-89.532-3.396-111.923-42.138-22.221-38.468-13.995-87.791 18.705-117.35 1.28-2.287 3.106-4.318 5.427-5.871l180.753-120.61h-84.395zM487.97 46.080c-26.965 0-48.742 22.374-57.020 43.52h114.022c-8.567-21.828-31.351-43.52-57.003-43.52zM621.397-29.867l-33.946 127.625c-1.075 4.011-3.567 7.492-7.031 9.813l-242.569 161.86c-0.939 1.28-2.031 2.458-3.311 3.465-23.501 18.5-30.020 51.866-15.155 77.585 14.848 25.719 46.985 36.762 74.803 25.634 1.092-0.427 2.236-0.734 3.362-0.905l259.635-146.876c5.274-2.987 11.742-2.935 16.981 0.102s8.465 8.653 8.482 14.711l0.734 358.451h134.212c59.614 0 109.244-45.175 115.439-105.045l52.343-526.421h-363.981zM67.413 68.267c-35.686 0-64.717-29.030-64.717-64.717s29.030-64.717 64.717-64.717c35.686 0 64.7 29.030 64.7 64.717s-29.013 64.717-64.7 64.717zM67.413-27.017c-16.862 0-30.583 13.722-30.583 30.583s13.722 30.583 30.583 30.583c16.845 0 30.566-13.722 30.566-30.583 0-16.879-13.722-30.583-30.566-30.583zM508.962 702.225c-35.089 0-63.659-28.553-63.659-63.642s28.57-63.659 63.659-63.659c35.106 0 63.642 28.553 63.642 63.659s-28.553 63.642-63.642 63.642zM508.962 609.058c-16.282 0-29.525 13.244-29.525 29.525 0 16.265 13.244 29.508 29.525 29.508s29.508-13.244 29.508-29.508c0-16.282-13.227-29.525-29.508-29.525zM508.962 531.558c-35.089 0-63.659-28.553-63.659-63.642s28.57-63.659 63.659-63.659c35.106 0 63.642 28.553 63.642 63.659s-28.553 63.642-63.642 63.642zM508.962 438.391c-16.282 0-29.525 13.244-29.525 29.525 0 16.265 13.244 29.508 29.525 29.508s29.508-13.244 29.508-29.508c0-16.282-13.227-29.525-29.508-29.525zM580.25 874.667h-307.2c-9.438 0-17.067-7.646-17.067-17.067s7.629-17.067 17.067-17.067h307.2c9.438 0 17.067 7.646 17.067 17.067s-7.629 17.067-17.067 17.067z" />
<glyph unicode="&#xe917;" glyph-name="draw-check" d="M412.705-38.958c33.113-33.515 106.863-22.406 114.804 30.293 49.405 327.18 296.619 603.198 483.698 863.29 51.872 72.075-67.4 140.543-118.597 69.326-170.956-237.651-386.429-487.72-470.725-776.098-96.33 98.448-193.049 195.963-301.092 282.471-68.424 54.808-166.3-41.75-97.139-97.135 140.766-112.752 262.416-244.233 389.052-372.148z" />
<glyph unicode="&#xe918;" glyph-name="email" d="M616.908 421.251l-91.533-77.74c-7.314-6.060-17.972-6.060-25.078 0l-91.533 77.531-373.864-315.977h954.201l-372.193 316.186zM0 767.321v-638.642l376.372 319.321zM34.9 790.936l477.1-404.793 477.1 404.793zM647.628 448l376.372-319.321v638.642z" />
<glyph unicode="&#xe919;" glyph-name="facebook" d="M647.434 733h77.899v135.667c-13.414 1.833-59.636 6-113.455 6-112.323 0-189.253-70.667-189.253-200.5v-119.5h-123.96v-151.667h123.96v-381.667h151.919v381.667h118.949l18.909 151.667h-137.859v104.5c0 43.833 11.798 73.833 72.889 73.833z" />
<glyph unicode="&#xe91a;" glyph-name="globe" d="M879.658 290.502c0.426 0.762 0.819 1.653 1.128 2.581l0.032 0.112c19.713 45.692 31.178 98.89 31.178 154.765 0 134.85-66.777 254.103-169.068 326.496l-1.248 0.838c-1.080 1.012-2.314 1.879-3.658 2.56l-0.090 0.041c-63.245 43.883-141.631 70.104-226.141 70.104-220.8 0-399.794-178.994-399.794-399.794 0-85.856 27.064-165.392 73.125-230.541l-0.84 1.252c0.135-0.25 0.213-0.516 0.363-0.762 0.621-1 1.296-1.868 2.052-2.658l-0.006 0.006c73.328-101.917 191.605-167.504 325.201-167.504 92.467 0 177.596 31.42 245.292 84.166l-0.893-0.67c1.246 0.709 2.321 1.521 3.279 2.453l-0.004-0.003c0.086 0.086 0.143 0.187 0.225 0.275 51.606 41.060 92.389 93.522 118.856 153.702l1.012 2.579zM511.996 816c0.121 0 0.264 0 0.407 0 75.542 0 145.737-22.896 204.023-62.126l-1.307 0.829 4.279-89.051c0.013-0.238 0.020-0.516 0.020-0.796 0-4.003-1.478-7.661-3.919-10.457l0.016 0.019-88.629-102.406c-2.489-2.864-5.95-4.827-9.865-5.373l-0.084-0.010-125.918-17.055c-0.654-0.095-1.408-0.15-2.176-0.15-3.52 0-6.773 1.143-9.408 3.079l0.044-0.031-78.625 56.965c-7.798 5.704-17.579 9.127-28.159 9.127-16.925 0-31.805-8.76-40.352-21.993l-0.114-0.189-79.369-124.391c-4.682-7.229-7.484-16.056-7.535-25.533v-0.013l-0.811-144.516c-0.053-5.742-3.104-10.759-7.661-13.569l-0.069-0.040-33.582-20.27c-37.118 56.485-59.207 125.726-59.207 200.125 0 203.144 164.68 367.824 367.824 367.824 0.062 0 0.124 0 0.186 0h-0.009zM221.836 221.918l31.488 19.008c13.878 8.549 23.030 23.6 23.189 40.801v0.023l0.811 144.516c0.019 3.164 0.954 6.106 2.552 8.578l-0.038-0.063 79.369 124.391c2.889 4.473 7.849 7.391 13.49 7.391 3.526 0 6.785-1.14 9.43-3.071l-0.045 0.032 78.625-56.965c7.785-5.709 17.554-9.136 28.124-9.136 2.285 0 4.532 0.16 6.731 0.47l-0.253-0.029 125.924 17.055c11.999 1.665 22.385 7.555 29.802 16.094l0.050 0.059 88.627 102.402c7.275 8.341 11.712 19.323 11.712 31.341 0 0.836-0.021 1.667-0.064 2.493l0.005-0.116-3.012 62.633c80.71-67.892 131.644-168.939 131.644-281.882 0-43.808-7.663-85.826-21.721-124.787l0.807 2.562-82.248 75.221c-8.526 7.781-19.92 12.546-32.426 12.546-6.634 0-12.955-1.341-18.707-3.767l0.317 0.119-121.803-50.625c-15.348-6.549-26.453-20.395-29.030-37.058l-0.034-0.27-9.539-64.785c-0.33-2.113-0.518-4.55-0.518-7.031 0-22.171 15.047-40.827 35.486-46.315l0.335-0.077 85.828-22.52c2.86-0.769 5.315-2.222 7.27-4.176v0l29.73-29.789c-58.946-42.026-132.44-67.191-211.812-67.191-117.561 0-222.228 55.209-289.488 141.113l-0.607 0.804zM749.246 166.934l-32.584 32.648c-5.855 5.864-13.217 10.223-21.455 12.446l-0.336 0.077-85.832 22.523c-6.925 1.854-11.942 8.073-11.942 15.464 0 0.826 0.063 1.637 0.184 2.43l-0.011-0.089 9.539 64.785c0.871 5.644 4.572 10.26 9.583 12.405l0.105 0.040 121.805 50.625c1.81 0.767 3.916 1.213 6.125 1.213 4.17 0 7.969-1.589 10.825-4.194l-0.013 0.011 90.988-83.215c-23.645-50.322-56.378-92.716-96.448-126.731l-0.532-0.441z" />
<glyph unicode="&#xe91b;" glyph-name="gloves" d="M957.932 778.322c-12.089 0-23.272-3.502-33.032-9.182v75.246c0 36.436-29.628 66.064-66.064 66.064-12.371 0-23.832-3.633-33.744-9.563-3.516 33.117-31.295 59.112-65.352 59.112-36.436 0-66.064-29.628-66.064-66.064v-9.182c-9.76 5.68-20.943 9.182-33.032 9.182-2.988 0-5.831-0.497-8.703-0.874-11.345 20.115-32.652 33.906-57.361 33.906-13.692 0-26.426-4.196-36.978-11.345-9.034 25.749-33.314 44.377-62.118 44.377-36.436 0-66.064-29.628-66.064-66.064v-9.182c-9.76 5.68-20.943 9.182-33.032 9.182-36.436 0-66.064-29.628-66.064-66.064v-33.032h-165.16v-33.032h165.16v-91.764c-9.76 5.68-20.943 9.182-33.032 9.182-36.436 0-66.064-29.628-66.064-66.064h-231.224v-33.032h231.224v-132.128h-99.096v-33.032h99.096v-49.55c0-85.852 17.952-126.283 36.929-169.092 6.374-14.368 12.801-28.97 18.762-45.618h-286.915v-33.032h297.056c9.859-38.183 16.747-88.508 16.747-165.16v-16.518h611.094v16.518c0 135.81 22.923 174.011 47.186 214.46 25.517 42.545 51.91 86.51 51.91 231.471v313.81c0 36.436-29.628 66.064-66.064 66.064zM346.725-30.964c-1.836 135.863-26.493 191.441-48.377 240.692-18.283 41.224-34.089 76.849-34.089 155.696v247.738c0 18.216 14.816 33.032 33.032 33.032s33.032-14.816 33.032-33.032v-181.674h33.032v396.384c0 18.216 14.816 33.032 33.032 33.032s33.032-14.816 33.032-33.032v-297.288h33.032v363.352c0 18.216 14.816 33.032 33.032 33.032s33.032-14.816 33.032-33.032v-181.678h33.032v148.646c0 18.216 14.816 33.032 33.032 33.032 10.884 0 20.464-5.352 26.493-13.495-15.986-12.075-26.493-31.034-26.493-52.569v-157.828c-9.76 5.68-20.943 9.182-33.032 9.182-36.436 0-66.064-29.628-66.064-66.064v-247.742c0-85.852 17.952-126.283 36.929-169.092 21.539-48.507 43.701-98.832 45.484-227.292h-231.171zM990.964 398.455c0-135.81-22.923-174.011-47.186-214.46-24.527-40.879-49.846-83.075-51.794-214.957h-281.003c-1.832 135.859-26.493 191.438-48.377 240.688-18.283 41.224-34.089 76.849-34.089 155.696v247.738c0 18.216 14.816 33.032 33.032 33.032s33.032-14.816 33.032-33.032v-181.674h33.032v396.384c0 18.216 14.816 33.032 33.032 33.032s33.032-14.816 33.032-33.032v-297.288h33.032v363.352c0 18.216 14.816 33.032 33.032 33.032s33.032-14.816 33.032-33.032v-363.352h33.032v313.803c0 18.216 14.816 33.032 33.032 33.032s33.032-14.816 33.032-33.032v-313.806h33.032v181.678c0 18.216 14.816 33.032 33.032 33.032s33.032-14.816 33.032-33.032v-313.803zM825.804 35.103h33.032v-33.032h-33.032v33.032zM759.74 35.103h33.032v-33.032h-33.032v33.032zM0.004 381.938h165.16v-33.032h-165.16v33.032zM0.004 216.778h82.582v-33.032h-82.582v33.032zM66.068 448.002h33.032v-33.032h-33.032v33.032zM0.004 794.84h115.614v-33.032h-115.614v33.032z" />
<glyph unicode="&#xe91c;" glyph-name="heart" d="M941.29 814.55c-53.62 53.62-124.608 82.927-200.371 82.927s-146.968-29.524-200.588-83.144l-28.004-28.004-28.438 28.438c-53.62 53.62-125.042 83.361-200.805 83.361-75.546 0-146.751-29.524-200.154-82.927-53.62-53.62-83.144-124.825-82.927-200.588 0-75.763 29.741-146.751 83.361-200.371l407.689-407.689c5.644-5.644 13.242-8.683 20.623-8.683s14.979 2.822 20.623 8.466l408.557 407.038c53.62 53.62 83.144 124.825 83.144 200.588 0.217 75.763-29.090 146.968-82.71 200.588zM899.609 454.837l-387.934-386.414-387.066 387.066c-42.549 42.549-65.994 98.992-65.994 159.125s23.228 116.576 65.777 158.907c42.332 42.332 98.774 65.777 158.69 65.777 60.133 0 116.793-23.445 159.342-65.994l49.062-49.062c11.506-11.506 29.958-11.506 41.464 0l48.627 48.627c42.549 42.549 99.209 65.994 159.125 65.994s116.358-23.445 158.907-65.777c42.549-42.549 65.777-98.992 65.777-159.125 0.217-60.133-23.228-116.576-65.777-159.125z" />
<glyph unicode="&#xe91d;" glyph-name="house" d="M512.004 960l-186.509-118.135c-26.53 17.734-44.032 47.935-44.032 82.173h-32.934c0-54.49-44.313-98.803-98.803-98.803v-32.934c23.021 0 44.166-7.971 60.979-21.212l-209.186-134.471v-203.586l98.803 62.577v-131.457c0-45.399-36.936-82.338-82.338-82.338v-32.934c45.399 0 82.338-36.936 82.338-82.338v-230.541h823.362v559.608l98.803-62.577v203.667l-510.482 323.302zM264.993 860.308c12.004-21.623 29.92-39.539 51.543-51.543-21.623-12.004-39.539-29.906-51.543-51.543-6.604 11.906-15.134 22.525-24.963 31.814l-0.411 0.643-0.183-0.116c-7.869 7.363-16.501 13.933-25.986 19.202 21.623 12.004 39.535 29.906 51.543 51.543zM77.314 265.345c16.139 9.731 29.741 23.333 39.472 39.472 9.731-16.139 23.333-29.755 39.472-39.472-16.139-9.731-29.741-23.333-39.472-39.472-9.731 16.139-23.333 29.741-39.472 39.472zM462.6-31.066l-197.607 0.004v428.144h197.607v-428.148zM890.748-31.062h-395.214v461.082h-263.476v-461.082h-98.803v197.607c0 45.399 36.936 82.338 82.338 82.338v32.934c-45.399 0-82.338 36.936-82.338 82.338v152.307l378.745 239.879 106.163-67.235c-26.941-27.697-64.552-45.005-106.163-45.005v-32.941c81.709 0 148.207-66.477 148.207-148.207h32.934c0 55.924 31.157 104.681 77.002 129.911l120.605-76.39v-547.534zM676.676 716.861c18.099-39.356 49.895-71.138 89.22-89.237-39.339-18.099-71.121-49.878-89.22-89.237-18.099 39.356-49.895 71.138-89.22 89.237 39.325 18.099 71.117 49.881 89.22 89.237zM989.551 492.875v0l-180.846 114.545c10.521 2.371 21.408 3.738 32.639 3.738v32.934c-81.709 0-148.207 66.477-148.207 148.207h-32.934c0-28.224-8.069-54.539-21.819-77.016l-126.388 80.047-477.544-302.456v125.759l198.629 127.687c9.731-15.299 15.447-33.395 15.447-52.825h32.934c0 54.49 44.313 98.803 98.803 98.803v32.934c-5.814 0-11.477 0.608-17.010 1.563l148.748 94.208 477.551-302.453v-125.678zM561.403 232.41h247.010v197.607h-247.010v-197.607zM594.338 397.082h181.141v-131.738h-181.141v131.738zM396.731 183.010h32.934v-32.934h-32.934v32.934zM709.61 364.148h32.934v-32.934h-32.934v32.934zM824.879 34.807h32.934v-32.934h-32.934v32.934zM759.010 34.807h32.934v-32.934h-32.934v32.934zM693.141 34.807h32.934v-32.934h-32.934v32.934z" />
<glyph unicode="&#xe91e;" glyph-name="instagram" d="M741.403 960h-458.823c-155.814 0-282.579-126.771-282.579-282.585v-458.823c0-155.82 126.765-282.585 282.579-282.585h458.823c155.826 0 282.591 126.771 282.591 282.585v458.823c0.006 155.814-126.765 282.585-282.591 282.585zM933.146 218.591c0-105.723-86.014-191.732-191.738-191.732h-458.829c-105.717-0.006-191.726 86.008-191.726 191.732v458.823c0 105.717 86.008 191.732 191.726 191.732h458.823c105.723 0 191.738-86.014 191.738-191.732v-458.823zM511.997 711.848c-145.493 0-263.857-118.364-263.857-263.857 0-145.487 118.364-263.845 263.857-263.845s263.857 118.358 263.857 263.845c0 145.493-118.364 263.857-263.857 263.857zM511.997 275.005c-95.39 0-173.004 77.601-173.004 172.992 0 95.396 77.607 173.004 173.004 173.004s173.004-77.607 173.004-173.004c0-95.39-77.613-172.992-173.004-172.992zM786.92 788.886c-17.504 0-34.7-7.087-47.062-19.503-12.423-12.356-19.564-29.558-19.564-47.123 0-17.511 7.147-34.706 19.564-47.123 12.356-12.356 29.558-19.503 47.062-19.503 17.565 0 34.706 7.147 47.123 19.503 12.417 12.417 19.503 29.618 19.503 47.123 0 17.565-7.087 34.767-19.503 47.123-12.356 12.417-29.558 19.503-47.123 19.503z" />
<glyph unicode="&#xe91f;" glyph-name="linkedin" d="M276.562 832c-46.688 0-84.562-37.812-84.562-84.5s37.844-85.375 84.5-85.375c46.656 0 84.562 38.687 84.562 85.375 0 46.656-37.812 84.5-84.5 84.5zM689.125 608c-71.008 0-111.637-37.134-131.125-74.062h-2.062v64.125h-139.938v-470.062h145.813v232.687c0 61.312 4.628 120.562 80.5 120.562 74.784 0 75.875-69.909 75.875-124.437v-228.813h145.813v258.187c0 126.336-27.163 221.813-174.875 221.813zM203.625 598.062v-470.062h145.937v470.062h-145.937z" />
<glyph unicode="&#xe920;" glyph-name="liquid" d="M875.354 728.776v66.064h-49.55v165.16h-264.256v-33.032h-297.288c-63.753 0-115.614-51.861-115.614-115.614v-49.546h82.582v49.546c0 24.231 24.692 33.032 41.291 33.032h289.029v-49.55h-49.55v-66.064c-82.582 0-148.646-66.691-148.646-148.646v-495.48c0-81.969 66.776-148.646 148.745-148.646h363.352c81.951 0 148.544 66.674 148.544 148.646v495.484c0.004 81.955-66.061 148.646-148.639 148.646zM594.58 926.968h198.192v-132.128h-198.192v132.128zM272.519 877.418c-36.038 0-74.323-23.156-74.323-66.064v-16.518h-16.518v16.518c0.004 45.537 37.052 82.582 82.582 82.582h297.288v-16.518h-289.029zM545.034 761.808h297.288v-33.032h-297.288v33.032zM743.226 200.263v214.71h165.16v-313.806c0-27.317-22.229-49.55-49.55-49.55h-330.32c-27.317 0-49.55 22.229-49.55 49.55v313.806h181.678v-214.71h82.582zM693.676 233.295v462.448h16.518v-462.448h-16.518zM990.964 84.649c0-63.735-51.763-115.614-115.512-115.614h-363.352c-63.753 0-115.713 51.875-115.713 115.614v495.48c0 63.753 51.96 115.614 115.713 115.614h148.544v-247.742h-214.71v-346.838c0-45.533 37.045-82.582 82.582-82.582h330.32c45.533 0 82.582 37.045 82.582 82.582v346.838h-198.192v247.742h132.227c63.753 0 115.512-51.861 115.512-115.614v-495.48zM132.132 200.263c-72.854 0-132.128-59.274-132.128-132.128s59.274-132.128 132.128-132.128 132.128 59.274 132.128 132.128-59.274 132.128-132.128 132.128zM132.132-30.961c-54.652 0-99.096 44.444-99.096 99.096s44.448 99.096 99.096 99.096 99.096-44.444 99.096-99.096-44.444-99.096-99.096-99.096zM264.26 365.423c-36.436 0-66.064-29.628-66.064-66.064s29.628-66.064 66.064-66.064 66.064 29.628 66.064 66.064-29.628 66.064-66.064 66.064zM264.26 266.327c-18.216 0-33.032 14.816-33.032 33.032s14.816 33.032 33.032 33.032 33.032-14.816 33.032-33.032-14.816-33.032-33.032-33.032zM198.196 530.584c45.533 0 82.582 37.045 82.582 82.582 0 40.431-58.217 112.21-69.898 126.198l-12.684 15.196-12.684-15.179c-11.677-14.006-69.898-85.785-69.898-126.216 0.004-45.537 37.052-82.582 82.582-82.582zM198.196 702.301c23.635-30.819 49.55-71.381 49.55-89.135 0-27.317-22.229-49.55-49.55-49.55s-49.55 22.229-49.55 49.55c0.004 17.719 25.932 58.284 49.55 89.135zM726.708 910.45h33.032v-33.032h-33.032v33.032zM478.97 662.712h33.032v-33.032h-33.032v33.032zM545.034 662.712h33.032v-33.032h-33.032v33.032z" />
<glyph unicode="&#xe921;" glyph-name="location" d="M512 896c-194.306-0.244-351.756-157.694-352-351.977v-0.023c0-0.149 0-0.326 0-0.503 0-79.555 26.662-152.882 71.537-211.534l-0.615 0.838s9.6-12.624 11.142-14.454l269.936-318.346 270.048 318.483c1.421 1.706 11.030 14.33 11.030 14.33l0.048 0.077c44.231 57.788 70.874 131.078 70.874 210.591 0 0.182 0 0.365 0 0.547v-0.028c-0.244 194.306-157.694 351.756-351.977 352h-0.023zM512 416c-70.692 0-128 57.308-128 128s57.308 128 128 128c70.692 0 128-57.308 128-128v0c-0.082-70.659-57.34-127.918-127.992-128h-0.008z" />
<glyph unicode="&#xe922;" glyph-name="minus" d="M0 481.758h1024v-67.516h-1024v67.516z" />
<glyph unicode="&#xe923;" glyph-name="phone" d="M422.694 958.973c-15.14 4.269-32.050-5.216-36.422-20.322l-33.014-115.696c-4.506-15.645 4.608-32.033 20.456-36.59 2.6-0.725 5.265-1.080 7.949-1.080 3.106 0 6.177 0.489 9.266 1.504 9.301 3.105 16.455 10.549 19.139 19.95l33.030 115.747c4.439 15.609-4.675 31.981-20.405 36.487zM425.158 722.789c5.553-7.123 14.279-11.375 23.326-11.375 3.122 0 6.195 0.489 9.383 1.537 3.106 1.080 6.026 2.616 8.777 4.725l183.849 143.51c12.81 10.041 15.071 28.624 5.044 41.468-9.485 12.085-29.131 14.616-41.435 5.080l-183.847-143.51c-12.81-10.027-15.089-28.593-5.097-41.435zM624.888 709.506l-124.81-32.084c-14.667-4.843-23.156-20.387-19.291-35.427 3.375-13.029 15.121-22.143 28.591-22.143 2.464 0 4.928 0.321 7.323 0.928l124.81 32.052c14.736 4.845 23.241 20.423 19.36 35.375-3.932 15.442-20.186 25.282-35.983 21.298zM287.707 800.711c-28.504-5.332-56.269-17.417-80.658-36.59-55.071-43.325-79.020-111.543-68.606-176.134 8.49-92.303 114.85-279.646 208.641-399.984 0.455-0.591 0.877-1.114 1.333-1.737 0.422-0.489 0.912-1.080 1.317-1.656 55.644-70.092 116.202-128.051 174.429-170.195l59.9-38.092c19.815-10.802 39.020-19.544 57.3-25.756 60.322-25.334 132.269-18.075 187.308 25.266 24.404 19.189 42.684 43.275 54.564 69.789 6.938 12 6.363 27.56-2.801 39.19l-163.714 208.084c-8.59 10.92-22.21 15.172-34.869 12.505l-0.102 0.118c-29.35-5.131-58.008-17.385-83.206-37.199-16.912-13.299-30.97-28.977-41.923-46.144-22.48 23.411-44.659 48.777-66.213 75.797-21.266 27.341-90.446 116.388-107.948 143.747 19.323 6.617 37.855 16.524 54.783 29.823 25.183 19.814 43.867 44.724 55.697 72.15l-0.018 0.069c5.57 11.661 4.508 26.058-4.015 36.911l-163.714 208.055c-9.164 11.663-24.168 15.932-37.485 11.982z" />
<glyph unicode="&#xe924;" glyph-name="phone-call" d="M622.211 804.133c1.886 6.889 8.090 11.867 15.457 11.867 1.47 0 2.894-0.198 4.246-0.569l-0.112 0.026c116.107-31.955 205.701-121.55 237.1-235.292l0.557-2.364c0.345-1.24 0.543-2.663 0.543-4.133 0-8.837-7.163-16-16-16-7.367 0-13.571 4.979-15.431 11.755l-0.026 0.112c-28.908 105.043-109.965 186.1-212.869 214.504l-2.139 0.504c-6.888 1.886-11.867 8.091-11.867 15.457 0 1.47 0.198 2.893 0.569 4.245l-0.026-0.112zM600.398 660.875c60.812-16.737 107.739-63.664 124.185-123.238l0.292-1.238c1.886-6.888 8.090-11.867 15.457-11.867 8.837 0 16 7.163 16 16 0 1.47-0.198 2.893-0.569 4.245l0.026-0.112c-19.782 71.878-75.247 127.343-145.661 146.78l-1.464 0.345c-1.24 0.345-2.663 0.543-4.133 0.543-8.837 0-16-7.163-16-16 0-7.367 4.979-13.571 11.755-15.431l0.112-0.026zM910.352 261.688c-13.622-102.947-100.787-181.58-206.34-181.688h-0.012c-308.785 0-560 251.215-560 560 0.107 105.563 78.738 192.728 180.623 206.237l1.060 0.115c1.719 0.218 3.708 0.342 5.726 0.342 19.696 0 36.626-11.844 44.056-28.799l0.121-0.309 80.363-187.508c2.46-5.577 3.892-12.079 3.892-18.916 0-9.782-2.931-18.879-7.964-26.46l0.11 0.177-66.543-101.676c-1.663-2.458-2.655-5.489-2.655-8.752 0-2.429 0.55-4.73 1.532-6.785l-0.041 0.095h0.004c32.281-64.861 83.748-116.112 146.902-147.276l1.887-0.842c1.941-0.922 4.218-1.46 6.62-1.46 3.311 0 6.382 1.022 8.917 2.768l-0.053-0.035 100.141 66.777c7.474 5.063 16.691 8.083 26.614 8.083 6.839 0 13.344-1.435 19.228-4.020l-0.307 0.12 187.352-80.293c17.263-7.55 29.107-24.479 29.107-44.174 0-2.017-0.124-4.006-0.366-5.958l0.024 0.234zM868.977 282.172l-187.344 80.293c-1.86 0.821-4.028 1.299-6.308 1.299-3.309 0-6.382-1.006-8.932-2.729l0.056 0.036-100.141-66.777c-7.477-5.068-16.699-8.092-26.628-8.092-7.457 0-14.515 1.705-20.806 4.747l0.286-0.125c-71.528 35.202-128.129 91.565-162.705 160.842l-0.927 2.052 0.004-0.004c-2.978 6.060-4.72 13.191-4.72 20.728 0 9.783 2.934 18.88 7.971 26.46l-0.11-0.176 66.543 101.676c1.641 2.47 2.618 5.503 2.618 8.765 0 2.28-0.478 4.449-1.338 6.412l0.040-0.103-80.363 187.5c-2.478 5.731-8.057 9.682-14.566 9.746h-0.008c-0.003 0-0.006 0-0.010 0-0.667 0-1.324-0.044-1.968-0.129l0.076 0.008c-87.096-11.533-153.617-85.287-153.695-174.593v-0.008c0-291.141 236.859-528 528-528 89.315 0.078 163.070 66.601 174.504 152.802l0.097 0.898c0.065 0.542 0.103 1.169 0.103 1.805 0 6.557-3.963 12.187-9.624 14.628l-0.103 0.040z" />
<glyph unicode="&#xe925;" glyph-name="pinterest" d="M441.19 282.778c-26.931-141.005-59.75-276.173-157.082-346.778-30.003 213.094 44.083 373.094 78.541 542.976-58.726 98.816 7.066 297.574 130.816 248.576 152.32-60.211-131.891-367.206 58.88-405.606 199.219-39.987 280.525 345.6 156.979 470.989-178.432 181.146-519.475 4.25-477.491-255.078 10.189-63.386 75.674-82.586 26.163-170.086-114.227 25.293-148.326 115.405-143.923 235.52 7.066 196.608 176.589 334.182 346.675 353.28 215.091 24.115 416.973-79.002 444.877-281.293 31.386-228.403-97.075-475.802-327.117-457.984-62.362 4.864-88.474 35.789-137.318 65.485z" />
<glyph unicode="&#xe926;" glyph-name="play" d="M363.867 741.618c13.873 7.425 30.707 6.611 43.8-2.117l384-256.002c11.87-7.91 18.999-21.231 18.999-35.499s-7.13-27.588-18.999-35.503l-384-256c-13.093-8.725-29.926-9.54-43.8-2.116s-22.534 21.884-22.534 37.619v512c0 15.735 8.66 30.193 22.534 37.618zM426.667 624.276v-352.554l264.414 176.277-264.414 176.276z" />
<glyph unicode="&#xe927;" glyph-name="play2" d="M839.851 543.087l-568.792 389.393c-26.268 17.995-52.735 27.52-74.734 27.52-42.531 0-68.84-34.134-68.84-91.27v-841.592c0-57.070 26.276-91.138 68.708-91.138 22.032 0 48.076 9.532 74.402 27.578l569.057 389.385c36.596 25.083 56.863 58.835 56.863 95.083 0.008 36.223-20.026 69.968-56.664 95.042z" />
<glyph unicode="&#xe928;" glyph-name="plus" d="M1024 481.758h-478.242v478.242h-67.516v-478.242h-478.242v-67.516h478.242v-478.242h67.516v478.242h478.242z" />
<glyph unicode="&#xe929;" glyph-name="quote-right" d="M640 106.667c-23.542 0.029-42.616 19.12-42.616 42.667 0 17.6 10.656 32.711 25.869 39.233l0.278 0.106c136.055 57.444 229.803 189.752 229.803 343.957 0 0.248 0 0.495-0.001 0.743v-0.038 21.333c0 58.91-47.756 106.667-106.667 106.667s-106.667-47.756-106.667-106.667c0-58.91 47.756-106.667 106.667-106.667v0c23.564 0 42.667-19.103 42.667-42.667s-19.103-42.667-42.667-42.667v0c-106.039 0-192 85.961-192 192s85.961 192 192 192c106.039 0 192-85.961 192-192v0-21.333c0-0.251 0.001-0.549 0.001-0.847 0-189.382-115.12-351.876-279.198-421.322l-3-1.128c-4.859-2.111-10.517-3.349-16.461-3.371h-0.008zM213.333 106.667c-23.542 0.029-42.616 19.12-42.616 42.667 0 17.6 10.656 32.711 25.869 39.233l0.278 0.106c136.055 57.444 229.803 189.752 229.803 343.957 0 0.248 0 0.495-0.001 0.743v-0.038 21.333c0 58.91-47.756 106.667-106.667 106.667s-106.667-47.756-106.667-106.667c0-58.91 47.756-106.667 106.667-106.667v0c23.564 0 42.667-19.103 42.667-42.667s-19.103-42.667-42.667-42.667v0c-106.039 0-192 85.961-192 192s85.961 192 192 192c106.039 0 192-85.961 192-192v0-21.333c0-0.251 0.001-0.549 0.001-0.847 0-189.382-115.12-351.876-279.198-421.322l-3-1.128c-4.859-2.111-10.517-3.349-16.461-3.371h-0.008z" />
<glyph unicode="&#xe92a;" glyph-name="right-arrow" d="M0 439.617c0-28.475 10.889-55.218 31.026-75.356l295.295-295.432c22.256-22.256 58.339-22.256 80.55 0 22.279 22.256 22.233 58.499 0 80.777l-240.874 240.783h801.418c31.482 0.023 56.585 25.832 56.585 57.337 0 0.068 0 0.569 0 0.638 0 31.482-25.103 57.474-56.585 57.474h-801.441l240.829 240.646c22.279 22.279 22.279 58.408 0 80.663-22.256 22.301-58.339 22.279-80.595-0.023l-295.181-295.455c-20.16-20.092-31.026-46.904-31.026-75.379 0-2.802 0-13.873 0-16.675z" />
<glyph unicode="&#xe92b;" glyph-name="right-arrow1" d="M757.16 960c5.547 0 11.095-2.124 15.32-6.349 8.473-8.473 8.473-22.168 0-30.641l-474.999-474.999 474.999-474.999c8.473-8.473 8.473-22.168 0-30.641s-22.168-8.473-30.641 0l-490.32 490.298c-8.473 8.473-8.473 22.168 0 30.641l490.32 490.341c4.247 4.226 9.773 6.349 15.32 6.349z" />
<glyph unicode="&#xe92c;" glyph-name="search" d="M157.972 500.646c0 166.781 135.202 301.982 301.983 301.982 166.78 0 301.978-135.201 301.978-301.982s-135.198-301.982-301.978-301.982c-166.781 0-301.983 135.202-301.983 301.982zM459.955 875.267c-206.899 0-374.622-167.723-374.622-374.621 0-206.895 167.723-374.618 374.622-374.618 97.003 0 185.391 36.868 251.925 97.353l164.783-164.783c14.187-14.182 37.18-14.182 51.366 0 14.182 14.182 14.182 37.18 0 51.362l-167.309 167.309c46.396 62.37 73.852 139.669 73.852 223.377 0 206.898-167.723 374.621-374.618 374.621z" />
<glyph unicode="&#xe92d;" glyph-name="share" d="M792.719 322.407c-59.71 0-113.164-27.239-148.632-69.935l-230.717 130.992c7.175 20.19 11.118 41.899 11.118 64.523 0 22.619-3.943 44.328-11.118 64.518l230.699 131.024c35.463-42.71 88.927-69.958 148.641-69.958 106.512 0 193.167 86.687 193.167 193.244 0.009 106.525-86.646 193.185-193.158 193.185-106.525 0-193.19-86.66-193.19-193.181 0-22.624 3.939-44.337 11.118-64.532l-230.713-131.029c-35.463 42.688-88.913 69.917-148.609 69.917-106.539 0-193.217-86.66-193.217-193.185 0-106.521 86.678-193.181 193.217-193.181 59.696 0 113.141 27.23 148.605 69.913l230.717-130.997c-7.179-20.195-11.123-41.913-11.123-64.541 0-106.521 86.664-193.181 193.19-193.181 106.512 0 193.167 86.664 193.167 193.181 0.005 106.539-86.651 193.221-193.163 193.221zM792.719 892.399c69.237 0 125.566-56.334 125.566-125.58 0-69.282-56.33-125.643-125.566-125.643-69.25 0-125.589 56.361-125.589 125.643 0 69.246 56.339 125.58 125.589 125.58zM231.33 322.407c-69.264 0-125.616 56.339-125.616 125.58 0 69.25 56.352 125.584 125.616 125.584 69.237 0 125.562-56.334 125.562-125.584 0-69.241-56.33-125.58-125.562-125.58zM792.719 3.601c-69.25 0-125.589 56.339-125.589 125.58 0 69.268 56.339 125.625 125.589 125.625 69.237 0 125.566-56.357 125.566-125.625 0-69.241-56.33-125.58-125.566-125.58z" />
<glyph unicode="&#xe92f;" glyph-name="skype" d="M946.287 295.823c19.839 52.499 29.888 107.625 29.888 164.134 0 124.019-48.274 240.592-135.933 328.249-87.654 87.652-204.227 135.926-328.242 135.926-56.224 0-110.893-9.904-162.755-29.465-38.025 41.716-91.14 65.333-148.114 65.333-110.904 0-201.131-90.23-201.131-201.133 0-59.292 26.487-115.588 71.588-153.663-15.774-47.243-23.763-96.029-23.763-145.247 0-124.015 48.272-240.588 135.924-328.242 87.652-87.657 204.229-135.933 328.251-135.933 49.788 0 99.324 8.209 147.506 24.421 37.459-52.348 98.509-84.203 163.363-84.203 110.904 0 201.131 90.23 201.131 201.133 0 62.44-28.742 120.529-77.713 158.689zM822.869-20.426c-55.538 0-107.527 29.864-135.673 77.937-4.007 6.839-11.257 10.78-18.809 10.78-2.564 0-5.164-0.455-7.682-1.405-48.431-18.269-98.461-27.53-148.702-27.53-112.383 0-218.014 43.742-297.439 123.17-79.423 79.425-123.161 185.054-123.161 297.431 0 49.298 8.874 98.154 26.378 145.21 3.434 9.238 0.242 19.63-7.787 25.345-41.59 29.604-66.418 77.589-66.418 128.355 0 86.879 70.68 157.559 157.557 157.559 48.941 0 94.258-22.284 124.331-61.139 6.033-7.789 16.537-10.565 25.626-6.769 50.912 21.26 105.052 32.038 160.91 32.038 112.376 0 218.005-43.74 297.433-123.165 79.425-79.425 123.168-185.056 123.168-297.435 0-56.536-11.092-111.54-32.968-163.487-4.1-9.735-0.625-21.009 8.24-26.748 45.433-29.4 72.556-78.963 72.556-132.586 0-86.879-70.68-157.559-157.557-157.559zM544.254 528.319c-150.739 29.297-160.5 75.347-124.233 107.457 36.311 32.084 144.153 46.54 174.463-9.774 29.332-54.409 50.278-76.748 90.724-66.974 38.646 9.318 44.208 62.795 27.931 94.892-13.129 25.92-72.584 92.125-189.834 92.125-117.231 0-240.060-43.272-240.060-150.739s111.668-154.918 219.136-170.285c107.444-15.343 132.571-61.416 118.655-94.927-13.944-33.465-60.043-65.551-129.817-58.592-69.8 6.959-102.003 65.41-111.673 94.927-9.294 28.35-41.847 32.088-57.213 30.709-15.367-1.425-64.218-20.994-41.895-89.345 22.347-68.399 94.949-122.832 240.084-122.832s230.276 89.345 230.28 174.461c0 85.155-55.788 139.567-206.55 168.897z" />
<glyph unicode="&#xe930;" glyph-name="star" d="M1011.836 525.179c11.032 10.754 14.926 26.536 10.168 41.186-4.762 14.65-17.188 25.128-32.434 27.342l-304.717 44.276c-0.236 0.034-0.444 0.184-0.552 0.402l-136.272 276.121c-6.818 13.814-20.626 22.398-36.028 22.398s-29.21-8.582-36.028-22.396l-136.272-276.121c-0.108-0.218-0.316-0.368-0.554-0.404l-304.719-44.278c-15.244-2.214-27.672-12.692-32.434-27.342-4.76-14.654-0.866-30.434 10.168-41.186l220.498-214.93c0.174-0.17 0.252-0.412 0.21-0.652l-52.052-303.485c-4.138-24.12 14.968-47.010 39.558-47.010 6.384 0 12.802 1.54 18.734 4.656l272.551 143.29c0.214 0.114 0.466 0.114 0.682-0.002l272.547-143.284c13.636-7.172 29.848-6 42.312 3.058 12.464 9.056 18.588 24.114 15.982 39.294l-52.052 303.487c-0.042 0.24 0.036 0.482 0.21 0.65l220.494 214.93zM752.257 302.927l52.050-303.487c0.056-0.318 0.078-0.448-0.292-0.718-0.368-0.266-0.486-0.208-0.774-0.056l-272.545 143.284c-11.706 6.158-25.688 6.158-37.394 0.002l-272.547-143.288c-0.286-0.152-0.404-0.21-0.772 0.056-0.368 0.27-0.348 0.4-0.292 0.72l52.050 303.487c2.238 13.036-2.082 26.33-11.554 35.562l-220.496 214.932c-0.232 0.226-0.328 0.318-0.186 0.754 0.142 0.434 0.274 0.452 0.594 0.5l304.717 44.278c13.086 1.902 24.396 10.116 30.25 21.976l136.272 276.121c0.142 0.29 0.202 0.41 0.66 0.41s0.518-0.12 0.66-0.41l136.272-276.129c5.854-11.858 17.162-20.076 30.248-21.976l304.717-44.276c0.32-0.048 0.452-0.066 0.594-0.5s0.044-0.528-0.186-0.754l-220.49-214.93c-9.474-9.232-13.794-22.526-11.556-35.558z" />
<glyph unicode="&#xe931;" glyph-name="star1" d="M1024 566.221l-352.238 52.179-161.576 317.313-158.473-318.877-351.713-55.611 254.297-249.254-55.793-351.687 315.635 164.829 317.231-161.741-59.223 351.125z" />
<glyph unicode="&#xe932;" glyph-name="sweep" d="M817.545 51.617v181.678h16.518v16.518c0 45.533-37.045 82.582-82.582 82.582h-132.128v561.541c0 36.436-29.628 66.064-66.064 66.064s-66.064-29.628-66.064-66.064v-561.545h-132.128c-45.533 0-82.582-37.045-82.582-82.582v-16.518h16.518v-181.678c0-63.753 51.861-115.614 115.614-115.614h264.256v19.523c23.635-12.321 52.041-19.523 82.582-19.523h148.646v33.032c-45.544 0.007-82.585 37.052-82.585 82.585zM520.257 893.936c0 18.216 14.816 33.032 33.032 33.032s33.032-14.816 33.032-33.032v-478.966h-66.064v478.966zM520.257 381.938h66.064v-49.55h-66.064v49.55zM355.097 299.359h396.384c21.539 0 39.903-13.808 46.724-33.032h-489.832c6.818 19.224 25.189 33.032 46.724 33.032zM404.643-30.964v0c-45.533 0.004-82.582 37.049-82.582 82.585v181.674h82.582v-181.678c0-32.338 13.378-61.572 34.85-82.582h-34.85zM751.481-30.964v0c-63.753 0.004-115.614 37.049-115.614 82.585h-33.032c0-32.983 7.117-61.917 18.945-82.582h-101.524c-45.533 0-82.582 37.045-82.582 82.582v181.674h264.256v-66.064h33.032v66.064h49.55v-181.678c0-32.32 13.329-61.589 34.766-82.582h-67.798zM701.932 134.199h33.032v-33.032h-33.032v33.032zM123.873 117.681h-33.032c0-29.614 7.117-57.59 19.738-82.318-42.743 41.985-69.284 100.386-69.284 164.896h-33.036c0-145.704 118.552-264.256 264.256-264.256v33.032c-81.955 0.004-148.642 66.695-148.642 148.646zM933.156-30.961h82.582v-33.032h-82.582v33.032zM156.905 150.713c0-27.317 22.229-49.55 49.55-49.55s49.55 22.229 49.55 49.55c0 27.321-22.229 49.55-49.55 49.55s-49.55-22.229-49.55-49.55zM222.969 150.713c0-9.101-7.417-16.518-16.518-16.518s-16.518 7.417-16.518 16.518 7.417 16.518 16.518 16.518 16.518-7.417 16.518-16.518zM156.905 348.906c36.436 0 66.064 29.628 66.064 66.064s-29.628 66.064-66.064 66.064-66.064-29.628-66.064-66.064c0-36.432 29.628-66.064 66.064-66.064zM156.905 448.002c18.216 0 33.032-14.816 33.032-33.032s-14.816-33.032-33.032-33.032-33.032 14.816-33.032 33.032 14.816 33.032 33.032 33.032zM90.841 183.746h33.032v-33.032h-33.032v33.032zM8.259 266.327h33.032v-33.032h-33.032v33.032zM8.259 332.391h33.032v-33.032h-33.032v33.032z" />
<glyph unicode="&#xe933;" glyph-name="toilet" d="M231.228 712.258h33.032c0 54.652 44.444 99.096 99.096 99.096v33.032c-54.652 0-99.096 44.448-99.096 99.096h-33.032c0-54.652-44.444-99.096-99.096-99.096v-33.032c54.652 0 99.096-44.444 99.096-99.096zM247.746 879.567c12.040-21.687 29.991-39.656 51.696-51.696-21.687-12.040-39.656-30.009-51.696-51.696-12.043 21.687-29.995 39.656-51.696 51.696 21.701 12.040 39.653 30.009 51.696 51.696zM1023.996 398.455v495.48h-0.842c-4.161 37.063-35.329 66.064-73.481 66.064h-99.096c-38.152 0-69.316-29.001-73.481-66.064h-0.842v-356.020c-9.76 5.68-20.943 9.182-33.032 9.182h-136.011c24.245 30.157 61.357 49.55 102.979 49.55v33.032c-72.854 0-132.128 59.274-132.128 132.128h-33.032c0-72.854-59.274-132.128-132.128-132.128v-33.032c41.622 0 78.748-19.389 102.979-49.55h-449.813c-36.436 0-66.064-29.628-66.064-66.064 0-34.156 26.161-62.019 59.44-65.388 15.063-161.841 141.758-291.506 302.126-311.509-3.619-15.080-14.566-36.006-47.763-36.006h-99.093c-39.984 0-115.614-24.164-115.614-115.614v-16.518h924.897v16.518c0 91.45-75.627 115.614-115.614 115.614-1.353 0-33.032 0.56-33.032 49.55v100.569c41.834 5.845 148.646 35.047 148.646 180.205zM809.287 885.677c0 22.758 18.516 41.291 41.291 41.291h99.096c22.775 0 41.291-18.53 41.291-41.291v-41.291h-181.678v41.291zM484.864 613.162c33.363 16.201 60.465 43.338 76.684 76.684 16.201-33.363 43.32-60.483 76.684-76.684-33.363-16.201-60.465-43.338-76.684-76.684-16.201 33.346-43.32 60.483-76.684 76.684zM66.068 448.002c-18.216 0-33.032 14.816-33.032 33.032s14.816 33.032 33.032 33.032h469.238c6.226-15.309 9.728-32.024 9.728-49.55h33.032c0 17.522 3.502 34.237 9.728 49.55h155.432c18.216 0 33.032-14.816 33.032-33.032s-14.816-33.032-33.032-33.032h-677.158zM92.609 414.97h624.057c-16.549-157.564-150.147-280.774-312.020-280.774s-295.474 123.214-312.037 280.774zM908.383 35.1c3.122 0 71.497-0.81 81.391-66.064h-856.469c9.482 63.569 73.629 65.997 81.409 66.064h99.096c54.468 0 75.461 37.524 80.943 66.561 3.319-0.081 6.557-0.497 9.894-0.497 180.321 0 328.802 138.372 345.2 314.483 33.279 3.368 59.44 31.232 59.44 65.388v330.32h181.678v-412.902c0-146.18-126.776-148.607-132.128-148.642h-16.518v-132.128c0-65.321 43.208-82.582 66.064-82.582zM148.649 381.938h33.032v-33.032h-33.032v33.032zM214.713 381.938h33.032v-33.032h-33.032v33.032zM280.778 381.938h33.032v-33.032h-33.032v33.032z" />
<glyph unicode="&#xe934;" glyph-name="twitter" d="M1000.788 770.434c-16.087-7.135-32.626-13.157-49.525-18.046 20.008 22.627 35.262 49.251 44.574 78.386 2.088 6.53-0.076 13.679-5.444 17.95-5.361 4.274-12.81 4.786-18.713 1.288-35.89-21.286-74.61-36.583-115.21-45.528-40.897 39.962-96.444 62.705-153.868 62.705-121.212 0-219.826-98.611-219.826-219.82 0-9.546 0.604-19.040 1.8-28.401-150.412 13.206-290.248 87.136-386.273 204.926-3.422 4.198-8.694 6.461-14.092 6.028-5.401-0.423-10.253-3.468-12.982-8.149-19.476-33.419-29.772-71.64-29.772-110.529 0-52.967 18.911-103.223 52.316-142.491-10.157 3.518-20.014 7.915-29.422 13.137-5.051 2.811-11.214 2.768-16.232-0.109-5.021-2.877-8.169-8.169-8.301-13.953-0.023-0.974-0.023-1.949-0.023-2.937 0-79.063 42.552-150.244 107.609-189.040-5.589 0.558-11.175 1.368-16.724 2.428-5.721 1.093-11.604-0.912-15.462-5.275-3.865-4.36-5.143-10.438-3.363-15.988 24.081-75.181 86.079-130.481 161.029-147.34-62.163-38.935-133.252-59.329-207.879-59.329-15.571 0-31.232 0.915-46.559 2.728-7.614 0.905-14.894-3.591-17.487-10.831-2.593-7.244 0.155-15.32 6.633-19.473 95.87-61.47 206.722-93.96 320.568-93.96 223.807 0 363.814 105.538 441.853 194.074 97.313 110.397 153.124 256.522 153.124 400.903 0 6.032-0.092 12.123-0.277 18.194 38.393 28.926 71.449 63.934 98.347 104.171 4.086 6.111 3.643 14.187-1.090 19.813-4.727 5.629-12.605 7.449-19.33 4.469z" />
<glyph unicode="&#xe936;" glyph-name="vacuum-cleaner" d="M908.386 68.129v0 66.068h-33.032v644.125c0 100.171-81.507 181.679-181.679 181.679s-181.679-81.507-181.679-181.679v-297.289c0-9.101-7.417-16.518-16.518-16.518h-110.474c-27.863 7.878-57.228 13.065-87.716 15.246v50.818h-148.643v-49.55h-33.032c-63.753 0.004-115.614-51.854-115.614-115.607v-214.711c0-45.533 37.045-82.582 82.582-82.582h92.307c19.654-48.359 67.072-82.582 122.4-82.582s102.747 34.22 122.4 82.582h141.857c45.533 0 82.582 37.045 82.582 82.582 0 86.067-36.055 163.427-95.992 221.631 36.799 14.485 62.96 50.29 62.96 92.176v313.804c0 45.533 37.045 82.582 82.582 82.582s82.582-37.045 82.582-82.582v-644.129h-33.032v-66.064h-115.614v-132.129h396.386v132.129h-115.614zM181.679 497.55h82.579v-16.518h-82.579v16.518zM297.289 18.582c-54.652 0-99.096 44.445-99.096 99.096s44.445 99.096 99.096 99.096 99.096-44.445 99.096-99.096-44.445-99.096-99.096-99.096zM611.096 150.714c0-27.321-22.233-49.55-49.55-49.55h-133.267c0.676 5.416 1.138 10.916 1.138 16.518 0 72.854-59.275 132.129-132.129 132.129s-132.129-59.275-132.129-132.129c0-5.599 0.462-11.099 1.138-16.518h-83.717c-27.317 0-49.55 22.229-49.55 49.55v214.707c0 45.533 37.045 82.582 82.582 82.582h148.643c194.493 0 346.839-130.592 346.839-297.289zM693.675 893.936c-63.753 0-115.614-51.861-115.614-115.614v-313.807c0-34.635-26.873-62.812-60.828-65.536-15.623 12.008-32.437 22.874-50.276 32.504h28.522c27.317 0 49.55 22.229 49.55 49.55v297.289c0 81.951 66.691 148.646 148.646 148.646s148.646-66.691 148.646-148.646v-644.129h-33.032v644.129c0 63.753-51.861 115.614-115.614 115.614zM776.257 101.164h99.096v-33.032h-99.096v33.032zM990.968-30.964v0h-330.325v66.064h330.325v-66.064zM561.546-30.964h33.032v-33.032h-33.032v33.032zM495.482-30.964h33.032v-33.032h-33.032v33.032zM429.418-30.964h33.032v-33.032h-33.032v33.032zM66.064 398.454h33.032v-33.032h-33.032v33.032zM66.064 332.389h33.032v-33.032h-33.032v33.032zM297.289 183.743c-36.436 0-66.064-29.629-66.064-66.064s29.629-66.064 66.064-66.064 66.064 29.629 66.064 66.064-29.629 66.064-66.064 66.064zM297.289 84.646c-18.216 0-33.032 14.816-33.032 33.032s14.816 33.032 33.032 33.032 33.032-14.816 33.032-33.032-14.816-33.032-33.032-33.032z" />
<glyph unicode="&#xe937;" glyph-name="water-tap" d="M660.643 580.132v33.029c0 27.317-22.229 49.55-49.55 49.55h-16.518v131.353c45.287-3.668 82.166-21.651 115.082-37.806 30.009-14.749 55.941-27.483 83.111-27.483 63.753 0 115.614 51.861 115.614 115.614s-51.858 115.611-115.611 115.611c-27.169 0-53.098-12.734-83.111-27.483-33.148-16.285-70.359-34.371-116.108-37.856-15.13 19.506-38.515 32.306-65.039 32.306s-49.913-12.801-65.039-32.306c-45.748 3.485-82.959 21.57-116.108 37.856-30.013 14.749-55.941 27.483-83.111 27.483-63.753 0-115.611-51.861-115.611-115.614s51.858-115.611 115.611-115.611c27.169 0 53.098 12.734 83.111 27.483 32.916 16.151 69.796 34.139 115.082 37.806v-131.353h-16.518c-27.317 0-49.55-22.229-49.55-49.55v-33.032h-181.672c-118.391 0-214.711-96.32-214.711-214.707v-280.775h33.032v-148.646h33.032v148.646h99.096v-148.646h33.032v148.646h33.032v198.193c0 27.317 22.229 49.55 49.55 49.55h743.225v247.743h-363.357zM608.75 863.116c46.245 6.046 84.083 24.361 115.463 39.772 26.327 12.917 49.071 24.079 68.559 24.079 45.533 0 82.582-37.045 82.582-82.582s-37.049-82.579-82.582-82.579c-19.488 0-42.232 11.166-68.559 24.079-31.38 15.408-69.218 33.709-115.463 39.755 1.42 6.060 2.347 12.272 2.347 18.745s-0.923 12.684-2.347 18.731zM448.279 825.659c-46.245-6.046-84.083-24.361-115.463-39.772-26.327-12.913-49.071-24.079-68.559-24.079-45.533 0-82.582 37.045-82.582 82.582s37.049 82.579 82.582 82.579c19.488 0 42.232-11.166 68.559-24.079 31.38-15.408 69.218-33.709 115.463-39.755-1.42-6.060-2.347-12.272-2.347-18.745s0.923-12.684 2.347-18.731zM528.514 893.936c27.317 0 49.55-22.229 49.55-49.55s-22.233-49.546-49.55-49.546-49.55 22.229-49.55 49.55c0 27.321 22.233 49.546 49.55 49.546zM561.546 768.808v-106.097h-66.064v106.097c10.14-4.461 21.271-7.001 33.032-7.001s22.892 2.544 33.032 7.001zM990.964 365.421h-710.189c-45.533 0-82.582-37.045-82.582-82.582v-165.161h-165.161v247.743c0 100.171 81.507 181.679 181.679 181.679h214.711v66.064c0 9.101 7.417 16.518 16.518 16.518h165.161c9.101 0 16.518-7.417 16.518-16.518v-66.064h363.347v-181.679zM82.582-30.964h33.032v-33.032h-33.032v33.032zM82.582 35.1h33.032v-33.032h-33.032v33.032zM396.386-30.964v-33.032c81.951 0 148.646 66.691 148.646 148.646h-33.032c0-63.753-51.861-115.614-115.614-115.614zM280.775-30.964v-33.032c54.652 0 99.096 44.445 99.096 99.096h-33.032c0-36.436-29.632-66.064-66.064-66.064zM512 183.743c0 45.533-37.045 82.582-82.582 82.582s-82.582-37.045-82.582-82.582v-99.096l31.017-7.91c0.56 0.99 14.221 24.428 51.562 24.428 45.537 0 82.586 37.045 82.586 82.579zM379.871 122.072v61.671c0 27.317 22.229 49.55 49.55 49.55s49.55-22.229 49.55-49.55c0-27.321-22.229-49.55-49.55-49.55-21.028 0.004-37.313-5.299-49.55-12.121zM561.546 580.129h33.032v-33.032h-33.032v33.032z" />
<glyph unicode="&#xe938;" glyph-name="wipe" d="M875.354 960h-726.707c-81.955 0-148.646-66.691-148.646-148.646v-528.514c0-43.867 19.224-83.241 49.55-110.477v-236.362h33.032v213.883c19.936-9.961 42.313-15.69 66.064-15.69h231.225v-132.129h33.032v132.129h33.032v-165.161h33.032v165.161h17.36c8.488-110.674 101.045-198.193 213.865-198.193h99.096c118.387 0 214.711 96.32 214.711 214.711v660.643c-0.004 81.955-66.695 148.646-148.646 148.646zM990.964 150.711c0-100.171-81.507-181.679-181.679-181.679h-99.096c-100.171 0-181.679 81.507-181.679 181.679v247.743c0 18.216 14.816 33.032 33.032 33.032s33.032-14.816 33.032-33.032v-181.679h33.032v396.386c0 18.216 14.816 33.032 33.032 33.032s33.032-14.816 33.032-33.032v-297.289h33.032v363.354c0 18.216 14.816 33.032 33.032 33.032s33.036-14.812 33.036-33.032v-363.354h33.032v313.807c0 18.216 14.816 33.032 33.032 33.032s33.032-14.816 33.032-33.032v-313.807h33.032v181.679c0 18.216 14.816 33.032 33.032 33.032s33.032-14.816 33.032-33.032v-346.839zM990.968 554.429c-9.76 5.68-20.943 9.182-33.032 9.182s-23.272-3.502-33.032-9.182v75.25c0 36.436-29.629 66.064-66.064 66.064-12.371 0-23.832-3.633-33.744-9.58-3.516 33.131-31.299 59.127-65.353 59.127-36.436 0-66.064-29.629-66.064-66.064v-9.182c-9.76 5.68-20.943 9.182-33.032 9.182-36.436 0-66.064-29.629-66.064-66.064v-157.828c-9.76 5.683-20.943 9.182-33.032 9.182-36.439 0.004-66.068-29.625-66.068-66.061v-231.225h-253.62c33.758 27.268 55.427 68.939 55.427 115.614v478.964c0 63.753-51.861 115.614-115.614 115.614-54.652 0-99.096-44.445-99.096-99.096v-148.646h33.032v148.643c0 36.436 29.629 66.064 66.064 66.064 45.537 0 82.582-37.045 82.582-82.579v-478.968c0-63.735-51.861-115.611-115.611-115.611s-115.614 51.875-115.614 115.611v528.514c0 63.753 51.861 115.614 115.614 115.614h726.707c63.753 0 115.614-51.861 115.614-115.614v-256.925zM330.321 860.904h33.032v-33.032h-33.032v33.032zM396.386 860.904h33.032v-33.032h-33.032v33.032zM462.45 860.904h33.032v-33.032h-33.032v33.032zM875.354 860.904h33.032v-33.032h-33.032v33.032zM809.289 860.904h33.032v-33.032h-33.032v33.032zM165.161 51.614h33.032v-115.614h-33.032v115.614zM379.871-30.964h33.032v-33.032h-33.032v33.032z" />
</font>
</defs>
</svg>
